<?xml version="1.0" encoding="utf-8"?>
<!-- Generator: Adobe Illustrator 22.0.0, SVG Export Plug-In . SVG Version: 6.00 Build 0)  -->
<svg version="1.1" id="Warstwa_1" xmlns="http://www.w3.org/2000/svg" xmlns:xlink="http://www.w3.org/1999/xlink" x="0px" y="0px"
	 viewBox="0 0 9354.3 1938.9" style="enable-background:new 0 0 9354.3 1938.9;" xml:space="preserve" width="200mm">
<style type="text/css">
	.st0{fill:#1B94D2;}
	.st1{fill:none;}
	.st2{fill:#01476B;}
	.st3{fill:#1994D2;}
	.st4{fill:#00466B;}
</style>
<metadata><?xpacket begin="﻿" id="W5M0MpCehiHzreSzNTczkc9d"?>
<x:xmpmeta xmlns:x="adobe:ns:meta/" x:xmptk="Adobe XMP Core 5.6-c143 79.161210, 2017/08/11-10:28:36        ">
   <rdf:RDF xmlns:rdf="http://www.w3.org/1999/02/22-rdf-syntax-ns#">
      <rdf:Description rdf:about=""
            xmlns:dc="http://purl.org/dc/elements/1.1/"
            xmlns:xmp="http://ns.adobe.com/xap/1.0/"
            xmlns:xmpGImg="http://ns.adobe.com/xap/1.0/g/img/"
            xmlns:xmpMM="http://ns.adobe.com/xap/1.0/mm/"
            xmlns:stRef="http://ns.adobe.com/xap/1.0/sType/ResourceRef#"
            xmlns:stEvt="http://ns.adobe.com/xap/1.0/sType/ResourceEvent#"
            xmlns:illustrator="http://ns.adobe.com/illustrator/1.0/"
            xmlns:xmpTPg="http://ns.adobe.com/xap/1.0/t/pg/"
            xmlns:stDim="http://ns.adobe.com/xap/1.0/sType/Dimensions#"
            xmlns:xmpG="http://ns.adobe.com/xap/1.0/g/"
            xmlns:pdf="http://ns.adobe.com/pdf/1.3/">
         <dc:format>image/svg+xml</dc:format>
         <dc:title>
            <rdf:Alt>
               <rdf:li xml:lang="x-default">logi_name_no_frame</rdf:li>
            </rdf:Alt>
         </dc:title>
         <xmp:MetadataDate>2019-02-24T20:53:52+01:00</xmp:MetadataDate>
         <xmp:ModifyDate>2019-02-24T20:53:52+01:00</xmp:ModifyDate>
         <xmp:CreateDate>2019-02-24T20:53:50+01:00</xmp:CreateDate>
         <xmp:CreatorTool>Adobe Illustrator CC 22.0 (Windows)</xmp:CreatorTool>
         <xmp:Thumbnails>
            <rdf:Alt>
               <rdf:li rdf:parseType="Resource">
                  <xmpGImg:width>256</xmpGImg:width>
                  <xmpGImg:height>56</xmpGImg:height>
                  <xmpGImg:format>JPEG</xmpGImg:format>
                  <xmpGImg:image>/9j/4AAQSkZJRgABAgEASABIAAD/7QAsUGhvdG9zaG9wIDMuMAA4QklNA+0AAAAAABAASAAAAAEA&#xA;AQBIAAAAAQAB/+4ADkFkb2JlAGTAAAAAAf/bAIQABgQEBAUEBgUFBgkGBQYJCwgGBggLDAoKCwoK&#xA;DBAMDAwMDAwQDA4PEA8ODBMTFBQTExwbGxscHx8fHx8fHx8fHwEHBwcNDA0YEBAYGhURFRofHx8f&#xA;Hx8fHx8fHx8fHx8fHx8fHx8fHx8fHx8fHx8fHx8fHx8fHx8fHx8fHx8fHx8f/8AAEQgAOAEAAwER&#xA;AAIRAQMRAf/EAaIAAAAHAQEBAQEAAAAAAAAAAAQFAwIGAQAHCAkKCwEAAgIDAQEBAQEAAAAAAAAA&#xA;AQACAwQFBgcICQoLEAACAQMDAgQCBgcDBAIGAnMBAgMRBAAFIRIxQVEGE2EicYEUMpGhBxWxQiPB&#xA;UtHhMxZi8CRygvElQzRTkqKyY3PCNUQnk6OzNhdUZHTD0uIIJoMJChgZhJRFRqS0VtNVKBry4/PE&#xA;1OT0ZXWFlaW1xdXl9WZ2hpamtsbW5vY3R1dnd4eXp7fH1+f3OEhYaHiImKi4yNjo+Ck5SVlpeYmZ&#xA;qbnJ2en5KjpKWmp6ipqqusra6voRAAICAQIDBQUEBQYECAMDbQEAAhEDBCESMUEFURNhIgZxgZEy&#xA;obHwFMHR4SNCFVJicvEzJDRDghaSUyWiY7LCB3PSNeJEgxdUkwgJChgZJjZFGidkdFU38qOzwygp&#xA;0+PzhJSktMTU5PRldYWVpbXF1eX1RlZmdoaWprbG1ub2R1dnd4eXp7fH1+f3OEhYaHiImKi4yNjo&#xA;+DlJWWl5iZmpucnZ6fkqOkpaanqKmqq6ytrq+v/aAAwDAQACEQMRAD8A9UMOSlakVFKjY4qwz8td&#xA;Nj039PWQkZjbag0Kgnb00jTg5A/bcH4j3zY9oZOPgl3xdZ2bi4OOPdP9A+3vZAvmXRjqt3pb3KxX&#xA;lkiyzLIQo9Nl5clJNCF/a8MxDgmICdekuaNRAzML9QUfKvm/Q/NFrdXejSme1tbl7RpiKK7xhSWT&#xA;epQ8tiaVyE8ZjsWcMgkLDBfIegW7/nD531pJ5XWzkitogzV5PcxJLMrnqViaMLGvYHL8s/3cQ0Yo&#xA;/vJF6pmK5TsVdirsVdirsVdirsVdirsVdirsVdirsVdirsVdirsVdirsVdirsVdirsVdirsVdirs&#xA;VYvodbfzz5jtzstzHZ3cY3/320Tn70GZubfBA93EP0uDg2z5B38J/R+h4b5yjL33mG+5Ai4fV0Cb&#xA;kjhE7Vr4fvPwzeE1gEe6MHnYx/wky75ZPsH7U4/5xbBtNQ8x2LOHM1vp10CCRQMkj0ofD1gDmm1u&#xA;4B97v9AKMh7non5Qn6zbeZ9V6jUvMF9LCxrvDGVijH0cDmPqNqHdEOVg6nvkf1M4vruKysri8lBM&#xA;VtE80gXc8Y1LGn0DKYRMpADq2zmIxMj0Snyd5rtvM+lPqEED24jmaB43IJ5KqtUEezjL9Vpjhlwk&#xA;3tbjaPVxzw4gK3pPMxnLdirsVdirsVdirsVdiqXa75i0fQrVLrVLj6vBI4iRuLuSxBNKIGPQHLsO&#xA;CeU1EWWjPqYYRxTNBMEdXRXQhkYAqw6EHcHKSKbwW8VdirsVdirsVdirsVdirTMqKXchVUEsxNAA&#xA;OpJxVJPKnnbyx5stZ7nQL0XkNtJ6M54SRlWpUfDIqGhG4OTyY5Q5tePLGYuJTzINiReWvPPlPzNN&#xA;eQ6FqKX0lgwS6VFdeJYkAjmq81PE/EtRlk8Uo8w1wyxldHknuVtjsVdirsVYzrOkeYo/Ma67of1S&#xA;RmtBZ3NtdF05BZDIGVkB+IVpvmZiy4zj4J3zsEODmw5Bl8THw/TRB99vOPzEn1hrm5F7CdGmGnXB&#xA;FvbXsAikrHN+/oTEQxO1SP2eubDEIeEeE8W/Mg302cDJKZzji9Gx2EhR579D9nRd+Wd5+Zh8o2K+&#xA;X9E06RWEif4i1S9WZrgCZ/ti15yUi/uxVzsuYGYQ4tyfcHY4TPh2HxJ/U9H/AC68r3HlfyhY6Jdy&#xA;xz3lv6r3M8VeLyTTPKSKhT+3Tcdsxs0+KVuRihwxATHzR/yjOr/8wVx/yabJaf8AvI/1h97DVf3U&#xA;v6p+55R+Xn5g6J5Y8rz292ss95LePIlvEu/AxRqGZmIUCqkePtm812hnmygjYcP6S852b2jjwYSJ&#xA;WZcXIe4J8Pzjv2Uyr5YuTbDczCRqU/5E07eOY38lR5eIL/Hm5v8ALE+fhSr8eTIvKf5keX/Mc31S&#xA;Hna39CRbT0BcAVPpsCQ1B22PtmJqdBkxCzvFzdJ2nizmhtLuKc+YdesdB0qXU70OYIeIKxLycliF&#xA;AAJUd+5zHwYJZZCMebk6jURwwM5cgwU/nOZ2P6N8v3V2laBufE1r4IkubL+Sa+qYH4+Dqv5a4vox&#xA;yl+Pivg/OaCK4WLWdFudNVjTnXnTehJVkiNB3pgl2SSLhIS/HxTHtoA1khKH4+D0KyvbW9tIru0l&#xA;Wa2nUPFKvQqc1U4GJo8w7mExIAjcFht/+bvlqxvNRtJ4rj6xYStAEVVPqujFG4HlsAR+1Tb7s2EO&#xA;y8khEiql9jrMnbGGEpRN3E170oP52OAJm8vzizJ2uPV7f8i+P/DZkfyR04xfu/a438tnn4cuHv8A&#xA;wP0pR+bXm+y1WwsdPhtriGUGG8LzIEXjNCWCjc1I9TftWuX9maUwkZEjqPkXG7Z1kckIxAIO0t/M&#xA;J3Y/nLokFnbwNp16TFGiMyrGQeKgVHx5jT7JmSTxRcuHbeMADhn8h+tPfPP5kaX5Q8sWnmC8tbie&#xA;C9lihht0CpKGmjaUcw5HGixmvvmuhgMpGPc7XJqBGAkb3YTrX/OTPl2K5Fp5d0m712fYkj9wh2qe&#xA;HwzSMQdj8AHgTlsdHL+I00y1sbqIMkV5U/5yJ8u6lqE+neY7GTyzdxKzj6y5kjIRS7KzFImR6D4Q&#xA;U36DegIyaQgXE8ScesiTUhwlLb7/AJybs5L2SDy75avNYhirWcuYSQOrBEjuDx/1qfIZIaI16jTE&#xA;60H6YmTLfy0/OPQPPEktlHBJp2sQIZJLCYhwUDcS0cgC8uNRUFQfbvlWbTmG/MN2DUxybcimP5if&#xA;mboHkS0tJ9ViuJ5L5nS2htkVifTALFmdkVQOQ718B1yOHCch2ZZs8cYsvO4/+cltRujXTfJN5eRm&#xA;vF1nbcDf9i3k/XmR+TA5ycb86TyiSj/L3/OS3l671JNP8waVcaBJIwVZpH9aJS3QykpE6D34keNB&#xA;kZ6MgWDbKGtiTUhws6/MbznYeVfKsuqXVvPdwzn6si2qhyGmRuLsSVCpt1+XjlGHGZSpyMuQQjZf&#xA;O/5MfmzpPka11aG+sLq8N/LHJGbYJRRGGBDcmX+bNjqMBnVF1ul1AgCCC+gPy5/M3SvPUF9LYWV1&#xA;Z/UGjWUXSqA3qhivBlZq04HkO23jmvzYTDm7HDmGTkCx38lb/wDLm91DzKfKGjyabJbzRJdTSuzi&#xA;VHMnpmMM7+mtUY8R7fRZqRMAcRtr00sZMuEUyXz9+aPlTyRDH+lpXkvZ152+n26h5nWtOVCVVVr3&#xA;YjvStMrxYJT5NmbPHGN3nKf85NX9yGl07yVd3dstT6wuG6AgVPC3kA6+OZH5MDnJxvzpPKJKY6B/&#xA;zk55Tu7pbXW9PutFkZuJlak8Sf65UJIPojORlopDkbZQ10SaIpneu+a5JbhdF8tNHeazODzmUh4b&#xA;RAaNJMRUVHZfH7icOmoceTaA+Z9yM+qJPh4t5n5R8z+pRt/y20OCESvdXi6iavdanHcyxSyOd2dq&#xA;NxH3ZKXaEyaocPQUGMezcYF3Li6y4iLYB579KxubmCK+XW1XTpz9ZvJtPklSkcv7otNC7UFK77b7&#xA;jrmbjJliJI4N+QEq6b86cCYEc4F8fpO5ML5Hbla38t/Kek+ZvLNn9c803sDP6oby3pt/aw28SiVx&#xA;QxWaRg8/t7Afa+nMDNkMZbD41+t2WHGJRG59wI/Qnupfl9e+RZl8x/l9FJKIlA1vy/JLJKL6Faky&#xA;RtIXYTpU8adew6q0BlE/TP4HuZnEYeqHxHf+1kUfnby35p8l6nd6ReRyu2nzvNZllFxD+7YFZoq8&#xA;kIYU8D2qMcWOUcsb/nD71zZIywyI/mn7mO/kloelyaXdavLAst8l0YIpXAYxqkaN8FfskmQ1ObDt&#xA;fNISEAfTTqewsEDAzI9XFX2D9b1LNK9A8i/N2wttF1zSNf09BBeSSM83D4QzwFGViB3PIhvHN92X&#xA;M5ISxy3H63m+2IDFkhljtK/uej+aNe0fRNJku9Uo8B+BIKBmlfqEVTsenfNRpsE8k6jzd5qtRDFA&#xA;yny+9hEP5m+b76ITaR5Vlez6RSUldSBtsVRF+7Nkez8UTU8m7qo9qZpi4YjX48kFrvnPzLf6Tc2G&#xA;ueUJzbTIQJlWVfTah4yAsjiqnfrlmHSY4yEoZBfw/W1Z9blnAxyYTR9/6kz/ACPvppfL97aOSUtb&#xA;msVeyyKCVH+yUn6cp7YgBkB7w39hTJxEHpJJvJWk6ff/AJpeYHvIVn+qT3c0COAVEn1niGoepAO2&#xA;ZGryyjpoUasD7nF0GGM9XkMhfCZV/pnsGaB6V5v+ef8Ayjth/wAxg/5NPm37G/vD7v0uj7e/uo/1&#xA;v0Fn2k/8cuz/AOMEf/EBmry/Ufe7nH9I9zyb/nKb/wAl9p//AG1of+oa4zJ0P1n3OJ2h9A9/62af&#xA;lV5a0TRPI+j/AKNtUgkvLK3ubuYAepLLLErszv1O7beA2GU55mUjbkYICMBTx7/nJfT7a48+eW42&#xA;XibuBYJpFoGKfWCBvv05mmZejNQLh62IM4+b6B0PQtJ0LTIdM0m1S0soBSOKMU+bMerMe7Hc5gSk&#xA;ZGy7CMREUHhixR23/OWKLAoiWZWeVV2DM2lszEgeLDkffM7np/x3uBy1P47no/5p/mX5W8mWdt+k&#xA;7VdT1OU+rYacAvKqbeqzsG9NR0DUJr0HWmNgwymdtg5WfPHGN+bB/wDlc/5wXSCew8gTi2k3iLw3&#xA;clVp/MFjr86Zf+XxjnJo/M5Dygw780fPnmXzH5aez80+R59Mu4HSSw1dkniEJ5AOpEsfxLItR9ul&#xA;aHemXYMUYyuMraNRllONSgR5vXvye1WfUvyb0+W4cvNBbXFqWP8ALA8kcYHyjVRmJqI1kLm6WV4w&#xA;w3/nFP8A453mT/mIt/8AiMmXa7mGjQfSfe94zAc94B/zit/vV5w/17L9d1mw13KP47nXaDnL8d6B&#xA;8vaTaedf+citfOuILm30dp5IrVxWNxZSx2sSsp24/FzI6E9epwzlwYRXVjACec30fRoAAAAoBsAM&#xA;1zs0v1by7oGsen+ltNtb8wkNEbmGOUqQa/DzBpkozI5FjKIPMIHyt5M0ry19a+ovK5uinMylTxWP&#xA;lwUcVXpzO53OZGp1cs1cXRxtLooYL4eqUarpena555uINTiNzp+madG5tyzhPXllZuRClQfgWm+X&#xA;4skseAGO0pS+ynHy4o5c5E94xiNvMk/qebzXHlzXE1K4F3Y+W7RILiG3s2slnb0fQas0jBWLH4iW&#xA;HtTNjnjPHCjxT7zfnyp1elnjy5OIGOMbgR4RdVztLPyrsfy/8x65eeTdV0yy1o2iNcaf5gtIWsWm&#xA;jBUusixGJ6q0lFbwFPDNdnM4jiBry5u1wCEiYEA115PVfyTuJm8gW1lcO0lxpdzeWMzuSzEw3D8a&#xA;kgdEYDMXUj133uXp/oo9L+9Ql/K7QdDu/NPmeykuHv8AVbO9DwOymNDc1ml4BVVjydRTkTTtluLO&#xA;TKETyEg1ZsAEJkczEsR/L3z9/hjRngvNMnm06e5eQX0XQOURTGAwCsRwr9vNxrtF407EhxAcnn+z&#xA;e0Py+OpRJiTz+W34LNF/OnycYi5W6Vv99GJeX4OV/HNd/JOa+nzdqO28FXv8mK3E+pfmX5psjDaP&#xA;BoGnt+8kk6BCwaTkw25yAABQTT7zmdGMdHiNm5ydfKUtdmjQrFH8H5sl/OPy/qeqaNaXNhE05sZH&#xA;aaCMFmKSADmFHXjx7eOYfZWeMJkS2tzu2tNPJjBiL4TyUtI/Ofyx9TiivLaezmiQI0aIHjHEUohB&#xA;Bp81yWXsnJdggscPbeGqkDErb/8AOC0vVax8vaZc39/MCkYdQq7inLihdmp9Hzxh2WY+rJIRiFn2&#xA;zGXpxRlKSj+Riv8Ao3VmZSAbhB07hTUfjku2fqj7mHYP0S/rKX5dxv8A8rM81PxPESXIJ7Va6qPv&#xA;AyWvP+DY/h9zHs0H81l95/3T1PNI9Awf839EvdT8rK9mhlksp1nkiUEsY+LI3EDqRyB+Vc2XZeaM&#xA;Mu/UU6ntnBLJh9O/CbSnT/zp0G30O2jltbh9QhhSN4VCiMuigVDltlNPCuXz7ImZmiOG3Hx9uYhj&#xA;Fg8VcmJ/n3rV7rX5S6XqF3YPp7y6xHwgc8iUFvcBX3Cmje4/DKsWGOPMYg8WzflzSy4BKUeHfl83&#xA;sPkmOSLyboMUqlJI9OtFdGFCGECAgg9xmuyfUfe7TH9I9zxT/nIuCZ/zA8nFELerxjjoK8mFyvwj&#xA;3+IZm6T6JOFrPrh7/wBT6EzXuweAzo4/5yytyVIBjJBp1H6KcV+/M8f4v+O91x/xkfjot/P3R9b0&#xA;vz7oXnuKxbUtI05bf6xGKlUe1uGl4OQG4JIH2Ygitfap0sgYGF0SuriRMTqwGRW3/OT/AOXkkPOa&#xA;31CCUD4ojDG2/gGWSn30yo6Kfk2jXY/NiH5jfnmvm/y1qeieWdDu5bOSHnqN/cL/AHMKMGLcIjIF&#xA;FV+0z/Rl2HTcEgZFpzavjiREF6B/zj9bGT8o7CKUMqTvdgHoSrTOpIr9OY+rP7wuRo/7oPLfy186&#xA;x/lJrmv6B5ssrms0iNHLboGqYi6hwHaPlHIrVVh/tZWbH4oBi4mDL4JMZvUPIv51SedfNZ0zSfL9&#xA;yuixo7T6vM4HpkLVOcaqyDmfhAEhO9egOY2XTcEbJ3cvFqfElQG3exH/AJxZjeO985I6lWWWzVlI&#xA;oQQ11UZbreUfx3NGhG8vx3oX8wNL80flv+Z8vn/RbJrzQ9QJe/VQSg9Wn1iKVhyMfNx6iPSlSBvS&#xA;mSxSjkhwHmjNGWLJxgWDzZRa/wDOUH5eyQ8p7bUbeUCrRGGN9+4Vlk3+mmVHRT8m4a7H5oOT/nJW&#xA;HUtRg0/yn5ZvdWuJWA4SssTkV34pELjb/KJFO+H8nQuRpj+dBNRiS9rzCc5iGjRyXesecbqL4nkk&#xA;jsoqGnxW9vSgNf5pMz8p4YYgff8AMuvwDiyZZeYHyj+15x5OnvdO0vVLWS70iwmiaf1INXQmRXWH&#xA;qR/vtafEKeObPtACVECR25jlzdT2UZQuJMY7nY/Vy+5JfygtdUvvzs1HVFNrd2tvC4u77S1K2FZI&#xA;lVBHWnUjp4gnNdqCBiA+/m7TTgnMTz93J6j+V5+q63550giht9ckvFHSiX8aSqOvT4TmNm3ET5OX&#xA;h2Mh/S+9n+Y7esSGFI/TSNVj3+AABd+u2Ek80UEG3l7QGfm2m2peteRgjrX58cs8fJ/OPza/Ahz4&#xA;R8kciJGgRFCIuyqooAPYDKybbQG8CoS60fSbt+d1ZW87/wA0sSOfvYHLI5Zx5EhhLFGXMAqtrY2V&#xA;onC1t47dD1WJFQfcoGRlMy5m0xgI8hSokcaV4KF5Es1ABVj1Jp3wE2yAcsUSOzqiq70LsAAWp0qe&#xA;+JJRS7Al2KoUaVpYufrQs4PrPX1/TTn/AMFSuT8WVVZph4cbuhatcWttcxGK5iSeIkExyKHWoNQa&#xA;NUbHIg0zVMCqctrbTPHJLEkjwtyhd1DFG6VUnoflhtVTAql9UtTci69FPrQX0xPxHqcK148qVp7Y&#xA;bVVwKlFx5O8oXMrTXGh6fNK32pJLWFmPzJUnJjJLvLEwieiY2tjZWluLa1t44LcbCGJFRAD/AJKg&#xA;DIkksqVIoYoY1ihRY4kFEjQBVAHYAbDAqF1HRtI1NFTUrG3vkT7K3MSSgV8A4bwwiRHJBAPNXtrW&#xA;1tYFt7WFIIEFEiiUIij2VQAMSbS6C1tYDI0EKRGZjJKUUKXc9Wag3J8TjaquBUouPJ3lG5lM1zom&#xA;nzyt9qSS1hdj8yyk5MZJDqWJhE9EfY6dp9hD6FjaxWkP++oEWNf+BUAZEknmkClduXE8TRqbE+OB&#xA;LGvI2ga5o8OojVp455b26NzWIlquygSOSVSnMqKLTbMzWZ4ZDHgFUKcHQ6eeMS4zZlK/x+romWoe&#xA;VvLmozSTX2m21zNMhjlkkjVmZCvAqTSpHE0yiOeYjwgmnJlgxmXEYji76VtG0HRdEtDZ6RZQ2FqW&#xA;Mhht0WNS52LEDqdshKRluWcYiIoCmH+WvJ/nDTvzN8xeYbu9t30XV1WkKV9RzEqpbVTiAphRWUty&#xA;PKvTwtnkiYAdQ1QxyEzLoWfZQ3uxV2KuxV2KuxV2KuxV2KuxV2KuxV2KuxV2KuxV2KuxV2KuxV2K&#xA;uxV2KuxV2KuxV2Kv/9k=</xmpGImg:image>
               </rdf:li>
            </rdf:Alt>
         </xmp:Thumbnails>
         <xmpMM:InstanceID>xmp.iid:a8839a04-0389-c844-8eb5-d8b69f28f7a8</xmpMM:InstanceID>
         <xmpMM:DocumentID>xmp.did:a8839a04-0389-c844-8eb5-d8b69f28f7a8</xmpMM:DocumentID>
         <xmpMM:OriginalDocumentID>uuid:5D20892493BFDB11914A8590D31508C8</xmpMM:OriginalDocumentID>
         <xmpMM:RenditionClass>proof:pdf</xmpMM:RenditionClass>
         <xmpMM:DerivedFrom rdf:parseType="Resource">
            <stRef:instanceID>xmp.iid:e4c7c29f-2291-6547-a313-4beaf9674468</stRef:instanceID>
            <stRef:documentID>xmp.did:e4c7c29f-2291-6547-a313-4beaf9674468</stRef:documentID>
            <stRef:originalDocumentID>uuid:5D20892493BFDB11914A8590D31508C8</stRef:originalDocumentID>
            <stRef:renditionClass>proof:pdf</stRef:renditionClass>
         </xmpMM:DerivedFrom>
         <xmpMM:History>
            <rdf:Seq>
               <rdf:li rdf:parseType="Resource">
                  <stEvt:action>saved</stEvt:action>
                  <stEvt:instanceID>xmp.iid:3775300c-f43e-3c4d-89a8-ae76c8c5f422</stEvt:instanceID>
                  <stEvt:when>2018-11-04T16:04:31+01:00</stEvt:when>
                  <stEvt:softwareAgent>Adobe Illustrator CC 22.0 (Windows)</stEvt:softwareAgent>
                  <stEvt:changed>/</stEvt:changed>
               </rdf:li>
               <rdf:li rdf:parseType="Resource">
                  <stEvt:action>saved</stEvt:action>
                  <stEvt:instanceID>xmp.iid:a8839a04-0389-c844-8eb5-d8b69f28f7a8</stEvt:instanceID>
                  <stEvt:when>2019-02-24T20:53:52+01:00</stEvt:when>
                  <stEvt:softwareAgent>Adobe Illustrator CC 22.0 (Windows)</stEvt:softwareAgent>
                  <stEvt:changed>/</stEvt:changed>
               </rdf:li>
            </rdf:Seq>
         </xmpMM:History>
         <illustrator:StartupProfile>Print</illustrator:StartupProfile>
         <xmpTPg:HasVisibleOverprint>False</xmpTPg:HasVisibleOverprint>
         <xmpTPg:HasVisibleTransparency>False</xmpTPg:HasVisibleTransparency>
         <xmpTPg:NPages>1</xmpTPg:NPages>
         <xmpTPg:MaxPageSize rdf:parseType="Resource">
            <stDim:w>3300.000000</stDim:w>
            <stDim:h>684.000000</stDim:h>
            <stDim:unit>Millimeters</stDim:unit>
         </xmpTPg:MaxPageSize>
         <xmpTPg:PlateNames>
            <rdf:Seq>
               <rdf:li>Cyan</rdf:li>
               <rdf:li>Magenta</rdf:li>
               <rdf:li>Yellow</rdf:li>
               <rdf:li>Black</rdf:li>
            </rdf:Seq>
         </xmpTPg:PlateNames>
         <xmpTPg:SwatchGroups>
            <rdf:Seq>
               <rdf:li rdf:parseType="Resource">
                  <xmpG:groupName>Domyślna grupa próbek</xmpG:groupName>
                  <xmpG:groupType>0</xmpG:groupType>
                  <xmpG:Colorants>
                     <rdf:Seq>
                        <rdf:li rdf:parseType="Resource">
                           <xmpG:swatchName>Biały</xmpG:swatchName>
                           <xmpG:mode>CMYK</xmpG:mode>
                           <xmpG:type>PROCESS</xmpG:type>
                           <xmpG:cyan>0.000000</xmpG:cyan>
                           <xmpG:magenta>0.000000</xmpG:magenta>
                           <xmpG:yellow>0.000000</xmpG:yellow>
                           <xmpG:black>0.000000</xmpG:black>
                        </rdf:li>
                        <rdf:li rdf:parseType="Resource">
                           <xmpG:swatchName>Czarny</xmpG:swatchName>
                           <xmpG:mode>CMYK</xmpG:mode>
                           <xmpG:type>PROCESS</xmpG:type>
                           <xmpG:cyan>0.000000</xmpG:cyan>
                           <xmpG:magenta>0.000000</xmpG:magenta>
                           <xmpG:yellow>0.000000</xmpG:yellow>
                           <xmpG:black>100.000000</xmpG:black>
                        </rdf:li>
                        <rdf:li rdf:parseType="Resource">
                           <xmpG:swatchName>Czerwony CMYK</xmpG:swatchName>
                           <xmpG:mode>CMYK</xmpG:mode>
                           <xmpG:type>PROCESS</xmpG:type>
                           <xmpG:cyan>0.000000</xmpG:cyan>
                           <xmpG:magenta>100.000000</xmpG:magenta>
                           <xmpG:yellow>100.000000</xmpG:yellow>
                           <xmpG:black>0.000000</xmpG:black>
                        </rdf:li>
                        <rdf:li rdf:parseType="Resource">
                           <xmpG:swatchName>Żółty CMYK</xmpG:swatchName>
                           <xmpG:mode>CMYK</xmpG:mode>
                           <xmpG:type>PROCESS</xmpG:type>
                           <xmpG:cyan>0.000000</xmpG:cyan>
                           <xmpG:magenta>0.000000</xmpG:magenta>
                           <xmpG:yellow>100.000000</xmpG:yellow>
                           <xmpG:black>0.000000</xmpG:black>
                        </rdf:li>
                        <rdf:li rdf:parseType="Resource">
                           <xmpG:swatchName>Zielony CMYK</xmpG:swatchName>
                           <xmpG:mode>CMYK</xmpG:mode>
                           <xmpG:type>PROCESS</xmpG:type>
                           <xmpG:cyan>100.000000</xmpG:cyan>
                           <xmpG:magenta>0.000000</xmpG:magenta>
                           <xmpG:yellow>100.000000</xmpG:yellow>
                           <xmpG:black>0.000000</xmpG:black>
                        </rdf:li>
                        <rdf:li rdf:parseType="Resource">
                           <xmpG:swatchName>Niebieskozielony CMYK</xmpG:swatchName>
                           <xmpG:mode>CMYK</xmpG:mode>
                           <xmpG:type>PROCESS</xmpG:type>
                           <xmpG:cyan>100.000000</xmpG:cyan>
                           <xmpG:magenta>0.000000</xmpG:magenta>
                           <xmpG:yellow>0.000000</xmpG:yellow>
                           <xmpG:black>0.000000</xmpG:black>
                        </rdf:li>
                        <rdf:li rdf:parseType="Resource">
                           <xmpG:swatchName>Niebieski CMYK</xmpG:swatchName>
                           <xmpG:mode>CMYK</xmpG:mode>
                           <xmpG:type>PROCESS</xmpG:type>
                           <xmpG:cyan>100.000000</xmpG:cyan>
                           <xmpG:magenta>100.000000</xmpG:magenta>
                           <xmpG:yellow>0.000000</xmpG:yellow>
                           <xmpG:black>0.000000</xmpG:black>
                        </rdf:li>
                        <rdf:li rdf:parseType="Resource">
                           <xmpG:swatchName>Karmazynowy CMYK</xmpG:swatchName>
                           <xmpG:mode>CMYK</xmpG:mode>
                           <xmpG:type>PROCESS</xmpG:type>
                           <xmpG:cyan>0.000000</xmpG:cyan>
                           <xmpG:magenta>100.000000</xmpG:magenta>
                           <xmpG:yellow>0.000000</xmpG:yellow>
                           <xmpG:black>0.000000</xmpG:black>
                        </rdf:li>
                        <rdf:li rdf:parseType="Resource">
                           <xmpG:swatchName>C=15 M=100 Y=90 K=10</xmpG:swatchName>
                           <xmpG:mode>CMYK</xmpG:mode>
                           <xmpG:type>PROCESS</xmpG:type>
                           <xmpG:cyan>15.000000</xmpG:cyan>
                           <xmpG:magenta>100.000000</xmpG:magenta>
                           <xmpG:yellow>90.000000</xmpG:yellow>
                           <xmpG:black>10.000000</xmpG:black>
                        </rdf:li>
                        <rdf:li rdf:parseType="Resource">
                           <xmpG:swatchName>C=0 M=90 Y=85 K=0</xmpG:swatchName>
                           <xmpG:mode>CMYK</xmpG:mode>
                           <xmpG:type>PROCESS</xmpG:type>
                           <xmpG:cyan>0.000000</xmpG:cyan>
                           <xmpG:magenta>90.000000</xmpG:magenta>
                           <xmpG:yellow>85.000000</xmpG:yellow>
                           <xmpG:black>0.000000</xmpG:black>
                        </rdf:li>
                        <rdf:li rdf:parseType="Resource">
                           <xmpG:swatchName>C=0 M=80 Y=95 K=0</xmpG:swatchName>
                           <xmpG:mode>CMYK</xmpG:mode>
                           <xmpG:type>PROCESS</xmpG:type>
                           <xmpG:cyan>0.000000</xmpG:cyan>
                           <xmpG:magenta>80.000000</xmpG:magenta>
                           <xmpG:yellow>95.000000</xmpG:yellow>
                           <xmpG:black>0.000000</xmpG:black>
                        </rdf:li>
                        <rdf:li rdf:parseType="Resource">
                           <xmpG:swatchName>C=0 M=50 Y=100 K=0</xmpG:swatchName>
                           <xmpG:mode>CMYK</xmpG:mode>
                           <xmpG:type>PROCESS</xmpG:type>
                           <xmpG:cyan>0.000000</xmpG:cyan>
                           <xmpG:magenta>50.000000</xmpG:magenta>
                           <xmpG:yellow>100.000000</xmpG:yellow>
                           <xmpG:black>0.000000</xmpG:black>
                        </rdf:li>
                        <rdf:li rdf:parseType="Resource">
                           <xmpG:swatchName>C=0 M=35 Y=85 K=0</xmpG:swatchName>
                           <xmpG:mode>CMYK</xmpG:mode>
                           <xmpG:type>PROCESS</xmpG:type>
                           <xmpG:cyan>0.000000</xmpG:cyan>
                           <xmpG:magenta>35.000000</xmpG:magenta>
                           <xmpG:yellow>85.000000</xmpG:yellow>
                           <xmpG:black>0.000000</xmpG:black>
                        </rdf:li>
                        <rdf:li rdf:parseType="Resource">
                           <xmpG:swatchName>C=5 M=0 Y=90 K=0</xmpG:swatchName>
                           <xmpG:mode>CMYK</xmpG:mode>
                           <xmpG:type>PROCESS</xmpG:type>
                           <xmpG:cyan>5.000000</xmpG:cyan>
                           <xmpG:magenta>0.000000</xmpG:magenta>
                           <xmpG:yellow>90.000000</xmpG:yellow>
                           <xmpG:black>0.000000</xmpG:black>
                        </rdf:li>
                        <rdf:li rdf:parseType="Resource">
                           <xmpG:swatchName>C=20 M=0 Y=100 K=0</xmpG:swatchName>
                           <xmpG:mode>CMYK</xmpG:mode>
                           <xmpG:type>PROCESS</xmpG:type>
                           <xmpG:cyan>20.000000</xmpG:cyan>
                           <xmpG:magenta>0.000000</xmpG:magenta>
                           <xmpG:yellow>100.000000</xmpG:yellow>
                           <xmpG:black>0.000000</xmpG:black>
                        </rdf:li>
                        <rdf:li rdf:parseType="Resource">
                           <xmpG:swatchName>C=50 M=0 Y=100 K=0</xmpG:swatchName>
                           <xmpG:mode>CMYK</xmpG:mode>
                           <xmpG:type>PROCESS</xmpG:type>
                           <xmpG:cyan>50.000000</xmpG:cyan>
                           <xmpG:magenta>0.000000</xmpG:magenta>
                           <xmpG:yellow>100.000000</xmpG:yellow>
                           <xmpG:black>0.000000</xmpG:black>
                        </rdf:li>
                        <rdf:li rdf:parseType="Resource">
                           <xmpG:swatchName>C=75 M=0 Y=100 K=0</xmpG:swatchName>
                           <xmpG:mode>CMYK</xmpG:mode>
                           <xmpG:type>PROCESS</xmpG:type>
                           <xmpG:cyan>75.000000</xmpG:cyan>
                           <xmpG:magenta>0.000000</xmpG:magenta>
                           <xmpG:yellow>100.000000</xmpG:yellow>
                           <xmpG:black>0.000000</xmpG:black>
                        </rdf:li>
                        <rdf:li rdf:parseType="Resource">
                           <xmpG:swatchName>C=85 M=10 Y=100 K=10</xmpG:swatchName>
                           <xmpG:mode>CMYK</xmpG:mode>
                           <xmpG:type>PROCESS</xmpG:type>
                           <xmpG:cyan>85.000000</xmpG:cyan>
                           <xmpG:magenta>10.000000</xmpG:magenta>
                           <xmpG:yellow>100.000000</xmpG:yellow>
                           <xmpG:black>10.000000</xmpG:black>
                        </rdf:li>
                        <rdf:li rdf:parseType="Resource">
                           <xmpG:swatchName>C=90 M=30 Y=95 K=30</xmpG:swatchName>
                           <xmpG:mode>CMYK</xmpG:mode>
                           <xmpG:type>PROCESS</xmpG:type>
                           <xmpG:cyan>90.000000</xmpG:cyan>
                           <xmpG:magenta>30.000000</xmpG:magenta>
                           <xmpG:yellow>95.000000</xmpG:yellow>
                           <xmpG:black>30.000000</xmpG:black>
                        </rdf:li>
                        <rdf:li rdf:parseType="Resource">
                           <xmpG:swatchName>C=75 M=0 Y=75 K=0</xmpG:swatchName>
                           <xmpG:mode>CMYK</xmpG:mode>
                           <xmpG:type>PROCESS</xmpG:type>
                           <xmpG:cyan>75.000000</xmpG:cyan>
                           <xmpG:magenta>0.000000</xmpG:magenta>
                           <xmpG:yellow>75.000000</xmpG:yellow>
                           <xmpG:black>0.000000</xmpG:black>
                        </rdf:li>
                        <rdf:li rdf:parseType="Resource">
                           <xmpG:swatchName>C=80 M=10 Y=45 K=0</xmpG:swatchName>
                           <xmpG:mode>CMYK</xmpG:mode>
                           <xmpG:type>PROCESS</xmpG:type>
                           <xmpG:cyan>80.000000</xmpG:cyan>
                           <xmpG:magenta>10.000000</xmpG:magenta>
                           <xmpG:yellow>45.000000</xmpG:yellow>
                           <xmpG:black>0.000000</xmpG:black>
                        </rdf:li>
                        <rdf:li rdf:parseType="Resource">
                           <xmpG:swatchName>C=70 M=15 Y=0 K=0</xmpG:swatchName>
                           <xmpG:mode>CMYK</xmpG:mode>
                           <xmpG:type>PROCESS</xmpG:type>
                           <xmpG:cyan>70.000000</xmpG:cyan>
                           <xmpG:magenta>15.000000</xmpG:magenta>
                           <xmpG:yellow>0.000000</xmpG:yellow>
                           <xmpG:black>0.000000</xmpG:black>
                        </rdf:li>
                        <rdf:li rdf:parseType="Resource">
                           <xmpG:swatchName>C=85 M=50 Y=0 K=0</xmpG:swatchName>
                           <xmpG:mode>CMYK</xmpG:mode>
                           <xmpG:type>PROCESS</xmpG:type>
                           <xmpG:cyan>85.000000</xmpG:cyan>
                           <xmpG:magenta>50.000000</xmpG:magenta>
                           <xmpG:yellow>0.000000</xmpG:yellow>
                           <xmpG:black>0.000000</xmpG:black>
                        </rdf:li>
                        <rdf:li rdf:parseType="Resource">
                           <xmpG:swatchName>C=100 M=95 Y=5 K=0</xmpG:swatchName>
                           <xmpG:mode>CMYK</xmpG:mode>
                           <xmpG:type>PROCESS</xmpG:type>
                           <xmpG:cyan>100.000000</xmpG:cyan>
                           <xmpG:magenta>95.000000</xmpG:magenta>
                           <xmpG:yellow>5.000000</xmpG:yellow>
                           <xmpG:black>0.000000</xmpG:black>
                        </rdf:li>
                        <rdf:li rdf:parseType="Resource">
                           <xmpG:swatchName>C=100 M=100 Y=25 K=25</xmpG:swatchName>
                           <xmpG:mode>CMYK</xmpG:mode>
                           <xmpG:type>PROCESS</xmpG:type>
                           <xmpG:cyan>100.000000</xmpG:cyan>
                           <xmpG:magenta>100.000000</xmpG:magenta>
                           <xmpG:yellow>25.000000</xmpG:yellow>
                           <xmpG:black>25.000000</xmpG:black>
                        </rdf:li>
                        <rdf:li rdf:parseType="Resource">
                           <xmpG:swatchName>C=75 M=100 Y=0 K=0</xmpG:swatchName>
                           <xmpG:mode>CMYK</xmpG:mode>
                           <xmpG:type>PROCESS</xmpG:type>
                           <xmpG:cyan>75.000000</xmpG:cyan>
                           <xmpG:magenta>100.000000</xmpG:magenta>
                           <xmpG:yellow>0.000000</xmpG:yellow>
                           <xmpG:black>0.000000</xmpG:black>
                        </rdf:li>
                        <rdf:li rdf:parseType="Resource">
                           <xmpG:swatchName>C=50 M=100 Y=0 K=0</xmpG:swatchName>
                           <xmpG:mode>CMYK</xmpG:mode>
                           <xmpG:type>PROCESS</xmpG:type>
                           <xmpG:cyan>50.000000</xmpG:cyan>
                           <xmpG:magenta>100.000000</xmpG:magenta>
                           <xmpG:yellow>0.000000</xmpG:yellow>
                           <xmpG:black>0.000000</xmpG:black>
                        </rdf:li>
                        <rdf:li rdf:parseType="Resource">
                           <xmpG:swatchName>C=35 M=100 Y=35 K=10</xmpG:swatchName>
                           <xmpG:mode>CMYK</xmpG:mode>
                           <xmpG:type>PROCESS</xmpG:type>
                           <xmpG:cyan>35.000000</xmpG:cyan>
                           <xmpG:magenta>100.000000</xmpG:magenta>
                           <xmpG:yellow>35.000000</xmpG:yellow>
                           <xmpG:black>10.000000</xmpG:black>
                        </rdf:li>
                        <rdf:li rdf:parseType="Resource">
                           <xmpG:swatchName>C=10 M=100 Y=50 K=0</xmpG:swatchName>
                           <xmpG:mode>CMYK</xmpG:mode>
                           <xmpG:type>PROCESS</xmpG:type>
                           <xmpG:cyan>10.000000</xmpG:cyan>
                           <xmpG:magenta>100.000000</xmpG:magenta>
                           <xmpG:yellow>50.000000</xmpG:yellow>
                           <xmpG:black>0.000000</xmpG:black>
                        </rdf:li>
                        <rdf:li rdf:parseType="Resource">
                           <xmpG:swatchName>C=0 M=95 Y=20 K=0</xmpG:swatchName>
                           <xmpG:mode>CMYK</xmpG:mode>
                           <xmpG:type>PROCESS</xmpG:type>
                           <xmpG:cyan>0.000000</xmpG:cyan>
                           <xmpG:magenta>95.000000</xmpG:magenta>
                           <xmpG:yellow>20.000000</xmpG:yellow>
                           <xmpG:black>0.000000</xmpG:black>
                        </rdf:li>
                        <rdf:li rdf:parseType="Resource">
                           <xmpG:swatchName>C=25 M=25 Y=40 K=0</xmpG:swatchName>
                           <xmpG:mode>CMYK</xmpG:mode>
                           <xmpG:type>PROCESS</xmpG:type>
                           <xmpG:cyan>25.000000</xmpG:cyan>
                           <xmpG:magenta>25.000000</xmpG:magenta>
                           <xmpG:yellow>40.000000</xmpG:yellow>
                           <xmpG:black>0.000000</xmpG:black>
                        </rdf:li>
                        <rdf:li rdf:parseType="Resource">
                           <xmpG:swatchName>C=40 M=45 Y=50 K=5</xmpG:swatchName>
                           <xmpG:mode>CMYK</xmpG:mode>
                           <xmpG:type>PROCESS</xmpG:type>
                           <xmpG:cyan>40.000000</xmpG:cyan>
                           <xmpG:magenta>45.000000</xmpG:magenta>
                           <xmpG:yellow>50.000000</xmpG:yellow>
                           <xmpG:black>5.000000</xmpG:black>
                        </rdf:li>
                        <rdf:li rdf:parseType="Resource">
                           <xmpG:swatchName>C=50 M=50 Y=60 K=25</xmpG:swatchName>
                           <xmpG:mode>CMYK</xmpG:mode>
                           <xmpG:type>PROCESS</xmpG:type>
                           <xmpG:cyan>50.000000</xmpG:cyan>
                           <xmpG:magenta>50.000000</xmpG:magenta>
                           <xmpG:yellow>60.000000</xmpG:yellow>
                           <xmpG:black>25.000000</xmpG:black>
                        </rdf:li>
                        <rdf:li rdf:parseType="Resource">
                           <xmpG:swatchName>C=55 M=60 Y=65 K=40</xmpG:swatchName>
                           <xmpG:mode>CMYK</xmpG:mode>
                           <xmpG:type>PROCESS</xmpG:type>
                           <xmpG:cyan>55.000000</xmpG:cyan>
                           <xmpG:magenta>60.000000</xmpG:magenta>
                           <xmpG:yellow>65.000000</xmpG:yellow>
                           <xmpG:black>40.000000</xmpG:black>
                        </rdf:li>
                        <rdf:li rdf:parseType="Resource">
                           <xmpG:swatchName>C=25 M=40 Y=65 K=0</xmpG:swatchName>
                           <xmpG:mode>CMYK</xmpG:mode>
                           <xmpG:type>PROCESS</xmpG:type>
                           <xmpG:cyan>25.000000</xmpG:cyan>
                           <xmpG:magenta>40.000000</xmpG:magenta>
                           <xmpG:yellow>65.000000</xmpG:yellow>
                           <xmpG:black>0.000000</xmpG:black>
                        </rdf:li>
                        <rdf:li rdf:parseType="Resource">
                           <xmpG:swatchName>C=30 M=50 Y=75 K=10</xmpG:swatchName>
                           <xmpG:mode>CMYK</xmpG:mode>
                           <xmpG:type>PROCESS</xmpG:type>
                           <xmpG:cyan>30.000000</xmpG:cyan>
                           <xmpG:magenta>50.000000</xmpG:magenta>
                           <xmpG:yellow>75.000000</xmpG:yellow>
                           <xmpG:black>10.000000</xmpG:black>
                        </rdf:li>
                        <rdf:li rdf:parseType="Resource">
                           <xmpG:swatchName>C=35 M=60 Y=80 K=25</xmpG:swatchName>
                           <xmpG:mode>CMYK</xmpG:mode>
                           <xmpG:type>PROCESS</xmpG:type>
                           <xmpG:cyan>35.000000</xmpG:cyan>
                           <xmpG:magenta>60.000000</xmpG:magenta>
                           <xmpG:yellow>80.000000</xmpG:yellow>
                           <xmpG:black>25.000000</xmpG:black>
                        </rdf:li>
                        <rdf:li rdf:parseType="Resource">
                           <xmpG:swatchName>C=40 M=65 Y=90 K=35</xmpG:swatchName>
                           <xmpG:mode>CMYK</xmpG:mode>
                           <xmpG:type>PROCESS</xmpG:type>
                           <xmpG:cyan>40.000000</xmpG:cyan>
                           <xmpG:magenta>65.000000</xmpG:magenta>
                           <xmpG:yellow>90.000000</xmpG:yellow>
                           <xmpG:black>35.000000</xmpG:black>
                        </rdf:li>
                        <rdf:li rdf:parseType="Resource">
                           <xmpG:swatchName>C=40 M=70 Y=100 K=50</xmpG:swatchName>
                           <xmpG:mode>CMYK</xmpG:mode>
                           <xmpG:type>PROCESS</xmpG:type>
                           <xmpG:cyan>40.000000</xmpG:cyan>
                           <xmpG:magenta>70.000000</xmpG:magenta>
                           <xmpG:yellow>100.000000</xmpG:yellow>
                           <xmpG:black>50.000000</xmpG:black>
                        </rdf:li>
                        <rdf:li rdf:parseType="Resource">
                           <xmpG:swatchName>C=50 M=70 Y=80 K=70</xmpG:swatchName>
                           <xmpG:mode>CMYK</xmpG:mode>
                           <xmpG:type>PROCESS</xmpG:type>
                           <xmpG:cyan>50.000000</xmpG:cyan>
                           <xmpG:magenta>70.000000</xmpG:magenta>
                           <xmpG:yellow>80.000000</xmpG:yellow>
                           <xmpG:black>70.000000</xmpG:black>
                        </rdf:li>
                     </rdf:Seq>
                  </xmpG:Colorants>
               </rdf:li>
               <rdf:li rdf:parseType="Resource">
                  <xmpG:groupName>Szarości</xmpG:groupName>
                  <xmpG:groupType>1</xmpG:groupType>
                  <xmpG:Colorants>
                     <rdf:Seq>
                        <rdf:li rdf:parseType="Resource">
                           <xmpG:swatchName>C=0 M=0 Y=0 K=100</xmpG:swatchName>
                           <xmpG:mode>CMYK</xmpG:mode>
                           <xmpG:type>PROCESS</xmpG:type>
                           <xmpG:cyan>0.000000</xmpG:cyan>
                           <xmpG:magenta>0.000000</xmpG:magenta>
                           <xmpG:yellow>0.000000</xmpG:yellow>
                           <xmpG:black>100.000000</xmpG:black>
                        </rdf:li>
                        <rdf:li rdf:parseType="Resource">
                           <xmpG:swatchName>C=0 M=0 Y=0 K=90</xmpG:swatchName>
                           <xmpG:mode>CMYK</xmpG:mode>
                           <xmpG:type>PROCESS</xmpG:type>
                           <xmpG:cyan>0.000000</xmpG:cyan>
                           <xmpG:magenta>0.000000</xmpG:magenta>
                           <xmpG:yellow>0.000000</xmpG:yellow>
                           <xmpG:black>89.999400</xmpG:black>
                        </rdf:li>
                        <rdf:li rdf:parseType="Resource">
                           <xmpG:swatchName>C=0 M=0 Y=0 K=80</xmpG:swatchName>
                           <xmpG:mode>CMYK</xmpG:mode>
                           <xmpG:type>PROCESS</xmpG:type>
                           <xmpG:cyan>0.000000</xmpG:cyan>
                           <xmpG:magenta>0.000000</xmpG:magenta>
                           <xmpG:yellow>0.000000</xmpG:yellow>
                           <xmpG:black>79.998800</xmpG:black>
                        </rdf:li>
                        <rdf:li rdf:parseType="Resource">
                           <xmpG:swatchName>C=0 M=0 Y=0 K=70</xmpG:swatchName>
                           <xmpG:mode>CMYK</xmpG:mode>
                           <xmpG:type>PROCESS</xmpG:type>
                           <xmpG:cyan>0.000000</xmpG:cyan>
                           <xmpG:magenta>0.000000</xmpG:magenta>
                           <xmpG:yellow>0.000000</xmpG:yellow>
                           <xmpG:black>69.999700</xmpG:black>
                        </rdf:li>
                        <rdf:li rdf:parseType="Resource">
                           <xmpG:swatchName>C=0 M=0 Y=0 K=60</xmpG:swatchName>
                           <xmpG:mode>CMYK</xmpG:mode>
                           <xmpG:type>PROCESS</xmpG:type>
                           <xmpG:cyan>0.000000</xmpG:cyan>
                           <xmpG:magenta>0.000000</xmpG:magenta>
                           <xmpG:yellow>0.000000</xmpG:yellow>
                           <xmpG:black>59.999100</xmpG:black>
                        </rdf:li>
                        <rdf:li rdf:parseType="Resource">
                           <xmpG:swatchName>C=0 M=0 Y=0 K=50</xmpG:swatchName>
                           <xmpG:mode>CMYK</xmpG:mode>
                           <xmpG:type>PROCESS</xmpG:type>
                           <xmpG:cyan>0.000000</xmpG:cyan>
                           <xmpG:magenta>0.000000</xmpG:magenta>
                           <xmpG:yellow>0.000000</xmpG:yellow>
                           <xmpG:black>50.000000</xmpG:black>
                        </rdf:li>
                        <rdf:li rdf:parseType="Resource">
                           <xmpG:swatchName>C=0 M=0 Y=0 K=40</xmpG:swatchName>
                           <xmpG:mode>CMYK</xmpG:mode>
                           <xmpG:type>PROCESS</xmpG:type>
                           <xmpG:cyan>0.000000</xmpG:cyan>
                           <xmpG:magenta>0.000000</xmpG:magenta>
                           <xmpG:yellow>0.000000</xmpG:yellow>
                           <xmpG:black>39.999400</xmpG:black>
                        </rdf:li>
                        <rdf:li rdf:parseType="Resource">
                           <xmpG:swatchName>C=0 M=0 Y=0 K=30</xmpG:swatchName>
                           <xmpG:mode>CMYK</xmpG:mode>
                           <xmpG:type>PROCESS</xmpG:type>
                           <xmpG:cyan>0.000000</xmpG:cyan>
                           <xmpG:magenta>0.000000</xmpG:magenta>
                           <xmpG:yellow>0.000000</xmpG:yellow>
                           <xmpG:black>29.998800</xmpG:black>
                        </rdf:li>
                        <rdf:li rdf:parseType="Resource">
                           <xmpG:swatchName>C=0 M=0 Y=0 K=20</xmpG:swatchName>
                           <xmpG:mode>CMYK</xmpG:mode>
                           <xmpG:type>PROCESS</xmpG:type>
                           <xmpG:cyan>0.000000</xmpG:cyan>
                           <xmpG:magenta>0.000000</xmpG:magenta>
                           <xmpG:yellow>0.000000</xmpG:yellow>
                           <xmpG:black>19.999700</xmpG:black>
                        </rdf:li>
                        <rdf:li rdf:parseType="Resource">
                           <xmpG:swatchName>C=0 M=0 Y=0 K=10</xmpG:swatchName>
                           <xmpG:mode>CMYK</xmpG:mode>
                           <xmpG:type>PROCESS</xmpG:type>
                           <xmpG:cyan>0.000000</xmpG:cyan>
                           <xmpG:magenta>0.000000</xmpG:magenta>
                           <xmpG:yellow>0.000000</xmpG:yellow>
                           <xmpG:black>9.999100</xmpG:black>
                        </rdf:li>
                        <rdf:li rdf:parseType="Resource">
                           <xmpG:swatchName>C=0 M=0 Y=0 K=5</xmpG:swatchName>
                           <xmpG:mode>CMYK</xmpG:mode>
                           <xmpG:type>PROCESS</xmpG:type>
                           <xmpG:cyan>0.000000</xmpG:cyan>
                           <xmpG:magenta>0.000000</xmpG:magenta>
                           <xmpG:yellow>0.000000</xmpG:yellow>
                           <xmpG:black>4.998800</xmpG:black>
                        </rdf:li>
                     </rdf:Seq>
                  </xmpG:Colorants>
               </rdf:li>
               <rdf:li rdf:parseType="Resource">
                  <xmpG:groupName>Jasne</xmpG:groupName>
                  <xmpG:groupType>1</xmpG:groupType>
                  <xmpG:Colorants>
                     <rdf:Seq>
                        <rdf:li rdf:parseType="Resource">
                           <xmpG:swatchName>C=0 M=100 Y=100 K=0</xmpG:swatchName>
                           <xmpG:mode>CMYK</xmpG:mode>
                           <xmpG:type>PROCESS</xmpG:type>
                           <xmpG:cyan>0.000000</xmpG:cyan>
                           <xmpG:magenta>100.000000</xmpG:magenta>
                           <xmpG:yellow>100.000000</xmpG:yellow>
                           <xmpG:black>0.000000</xmpG:black>
                        </rdf:li>
                        <rdf:li rdf:parseType="Resource">
                           <xmpG:swatchName>C=0 M=75 Y=100 K=0</xmpG:swatchName>
                           <xmpG:mode>CMYK</xmpG:mode>
                           <xmpG:type>PROCESS</xmpG:type>
                           <xmpG:cyan>0.000000</xmpG:cyan>
                           <xmpG:magenta>75.000000</xmpG:magenta>
                           <xmpG:yellow>100.000000</xmpG:yellow>
                           <xmpG:black>0.000000</xmpG:black>
                        </rdf:li>
                        <rdf:li rdf:parseType="Resource">
                           <xmpG:swatchName>C=0 M=10 Y=95 K=0</xmpG:swatchName>
                           <xmpG:mode>CMYK</xmpG:mode>
                           <xmpG:type>PROCESS</xmpG:type>
                           <xmpG:cyan>0.000000</xmpG:cyan>
                           <xmpG:magenta>10.000000</xmpG:magenta>
                           <xmpG:yellow>95.000000</xmpG:yellow>
                           <xmpG:black>0.000000</xmpG:black>
                        </rdf:li>
                        <rdf:li rdf:parseType="Resource">
                           <xmpG:swatchName>C=85 M=10 Y=100 K=0</xmpG:swatchName>
                           <xmpG:mode>CMYK</xmpG:mode>
                           <xmpG:type>PROCESS</xmpG:type>
                           <xmpG:cyan>85.000000</xmpG:cyan>
                           <xmpG:magenta>10.000000</xmpG:magenta>
                           <xmpG:yellow>100.000000</xmpG:yellow>
                           <xmpG:black>0.000000</xmpG:black>
                        </rdf:li>
                        <rdf:li rdf:parseType="Resource">
                           <xmpG:swatchName>C=100 M=90 Y=0 K=0</xmpG:swatchName>
                           <xmpG:mode>CMYK</xmpG:mode>
                           <xmpG:type>PROCESS</xmpG:type>
                           <xmpG:cyan>100.000000</xmpG:cyan>
                           <xmpG:magenta>90.000000</xmpG:magenta>
                           <xmpG:yellow>0.000000</xmpG:yellow>
                           <xmpG:black>0.000000</xmpG:black>
                        </rdf:li>
                        <rdf:li rdf:parseType="Resource">
                           <xmpG:swatchName>C=60 M=90 Y=0 K=0</xmpG:swatchName>
                           <xmpG:mode>CMYK</xmpG:mode>
                           <xmpG:type>PROCESS</xmpG:type>
                           <xmpG:cyan>60.000000</xmpG:cyan>
                           <xmpG:magenta>90.000000</xmpG:magenta>
                           <xmpG:yellow>0.003100</xmpG:yellow>
                           <xmpG:black>0.003100</xmpG:black>
                        </rdf:li>
                     </rdf:Seq>
                  </xmpG:Colorants>
               </rdf:li>
            </rdf:Seq>
         </xmpTPg:SwatchGroups>
         <pdf:Producer>Adobe PDF library 15.00</pdf:Producer>
      </rdf:Description>
   </rdf:RDF>
</x:xmpmeta>
                                                                                                    
                                                                                                    
                                                                                                    
                                                                                                    
                                                                                                    
                                                                                                    
                                                                                                    
                                                                                                    
                                                                                                    
                                                                                                    
                                                                                                    
                                                                                                    
                                                                                                    
                                                                                                    
                                                                                                    
                                                                                                    
                                                                                                    
                                                                                                    
                                                                                                    
                                                                                                    
                           
<?xpacket end="w"?>
	</metadata>
<g>
	<polygon class="st0" points="694.5,1315.3 807.9,1315.3 807.9,1230.2 694.5,1230.2 694.5,1258.6 581.1,1372 566.9,1669.6 
		694.5,1797.2 807.9,1797.2 807.9,1712.1 694.5,1712.1 694.5,1627.1 807.9,1627.1 807.9,1561.9 694.5,1561.9 694.5,1476.9 
		807.9,1476.9 807.9,1400.3 694.5,1400.3 	"/>
</g>
<g>
	<path class="st0" d="M695,1139.5l-0.2,0l-274.3,53.3c0,0-85.3,606.9-85.3,606.9c-29.9,8.3-51.8,35.7-51.8,68.3
		c0,39.1,31.7,70.9,70.9,70.9c39.1,0,70.9-31.7,70.9-70.9c0-25.5-13.5-47.9-33.8-60.4l0,0l79.7-566.8l229.4-44.6h107.4v-56.7H695z
		 M354.3,1896.4c-15.7,0-28.3-12.7-28.3-28.3s12.7-28.3,28.3-28.3c15.7,0,28.3,12.7,28.3,28.3S370,1896.4,354.3,1896.4z"/>
</g>
<g>
	<path class="st0" d="M695,799.4l-0.2,0L420.6,746c0,0-85.3-606.9-85.3-606.9c-29.9-8.3-51.8-35.7-51.8-68.3
		c0-39.1,31.7-70.9,70.9-70.9c39.1,0,70.9,31.7,70.9,70.9c0,25.5-13.5,47.9-33.8,60.4l0,0l79.7,566.8l229.4,44.6h107.4v56.7H695z
		 M354.3,42.5c-15.7,0-28.3,12.7-28.3,28.3s12.7,28.3,28.3,28.3c15.7,0,28.3-12.7,28.3-28.3S370,42.5,354.3,42.5z"/>
</g>
<g>
	<rect x="694.5" y="1026.1" class="st0" width="113.4" height="85"/>
</g>
<g>
	<rect x="694.5" y="827.7" class="st0" width="113.4" height="85"/>
</g>
<g>
	<rect x="694.5" y="629.3" class="st0" width="113.4" height="85"/>
</g>
<line class="st1" x1="1015" y1="176.7" x2="1014.3" y2="176.7"/>
<g>
	<path class="st0" d="M722.8,497.9c8.5-4.9,14.2-14.1,14.2-24.6c0-15.7-12.7-28.3-28.3-28.3c-15.7,0-28.3,12.7-28.3,28.3
		c0,10.5,5.7,19.7,14.2,24.6c0,0,0,103,0,103h-70.9l-13.2-13.2L631,304.4c0,0,15.3-15.3,15.3-15.3c0,0,22.7,0,22.7,0v-90.7l20-8.3
		c0,0,99,99,99,99c0,0,19.8,0,19.8,0v311.8h-85C722.8,600.9,722.8,497.9,722.8,497.9z"/>
</g>
<g>
	<path class="st0" d="M697.2,941.1l-332.5-64.6c0,0-180.8,180.8-267.9,267.9c-8-3.2-16.8-4.9-25.9-4.9c-39.1,0-70.9,31.7-70.9,70.9
		s31.7,70.9,70.9,70.9s70.9-31.7,70.9-70.9c0-9.1-1.7-17.9-4.9-25.9l246.6-246.6l308.3,59.9h116.1v-56.7H697.2z M70.9,1238.7
		c-15.7,0-28.3-12.7-28.3-28.3s12.7-28.3,28.3-28.3s28.3,12.7,28.3,28.3S86.5,1238.7,70.9,1238.7z"/>
</g>
<g>
	<polygon class="st2" points="949.6,1315.3 836.2,1315.3 836.2,1230.2 949.6,1230.2 949.6,1258.6 1063,1372 1077.2,1669.6 
		949.6,1797.2 836.2,1797.2 836.2,1712.1 949.6,1712.1 949.6,1627.1 836.2,1627.1 836.2,1561.9 949.6,1561.9 949.6,1476.9 
		836.2,1476.9 836.2,1400.3 949.6,1400.3 	"/>
</g>
<g>
	<path class="st2" d="M949.1,1139.5l0.2,0l274.3,53.3c0,0,85.3,606.9,85.3,606.9c29.9,8.3,51.8,35.7,51.8,68.3
		c0,39.1-31.7,70.9-70.9,70.9s-70.9-31.7-70.9-70.9c0-25.5,13.5-47.9,33.8-60.4l0,0l-79.7-566.8l-229.4-44.6H836.2v-56.7H949.1z
		 M1289.8,1896.4c15.7,0,28.3-12.7,28.3-28.3s-12.7-28.3-28.3-28.3s-28.3,12.7-28.3,28.3S1274.1,1896.4,1289.8,1896.4z"/>
</g>
<g>
	<path class="st2" d="M949.1,799.4l0.2,0l274.3-53.3c0,0,85.3-606.9,85.3-606.9c29.9-8.3,51.8-35.7,51.8-68.3
		c0-39.1-31.7-70.9-70.9-70.9c-39.1,0-70.9,31.7-70.9,70.9c0,25.5,13.5,47.9,33.8,60.4l0,0L1173,698.1l-229.4,44.6H836.2v56.7H949.1
		z M1289.8,42.5c15.7,0,28.3,12.7,28.3,28.3s-12.7,28.3-28.3,28.3c-15.7,0-28.3-12.7-28.3-28.3S1274.1,42.5,1289.8,42.5z"/>
</g>
<g>
	<rect x="836.2" y="1026.1" class="st2" width="113.4" height="85"/>
</g>
<g>
	<rect x="836.2" y="827.7" class="st2" width="113.4" height="85"/>
</g>
<g>
	<rect x="836.2" y="629.3" class="st2" width="113.4" height="85"/>
</g>
<g>
	<path class="st2" d="M921.3,497.9c-8.5-4.9-14.2-14.1-14.2-24.6c0-15.7,12.7-28.3,28.3-28.3c15.7,0,28.3,12.7,28.3,28.3
		c0,10.5-5.7,19.7-14.2,24.6c0,0,0,103,0,103h70.9l13.2-13.2l-20.6-283.3c0,0-15.3-15.3-15.3-15.3c0,0-22.7,0-22.7,0v-90.7
		c0,0-20-8.3-20-8.3s-99,99-99,99c0,0-19.8,0-19.8,0v311.8c0,0,85,0,85,0S921.3,497.9,921.3,497.9z"/>
</g>
<g>
	<path class="st2" d="M946.9,941.1l332.5-64.6c0,0,180.8,180.8,267.9,267.9c8-3.2,16.8-4.9,25.9-4.9c39.1,0,70.9,31.7,70.9,70.9
		s-31.7,70.9-70.9,70.9s-70.9-31.7-70.9-70.9c0-9.1,1.7-17.9,4.9-25.9l-246.6-246.6l-308.3,59.9H836.2v-56.7H946.9z M1573.2,1238.7
		c15.7,0,28.3-12.7,28.3-28.3s-12.7-28.3-28.3-28.3c-15.7,0-28.3,12.7-28.3,28.3S1557.6,1238.7,1573.2,1238.7z"/>
</g>
<g>
	<path class="st3" d="M2214.6,1469.2c-46.9,0-90.9-3-130.7-8.8c-39.5-5.8-76-13.3-108.4-22.4c-32.4-9.1-61.9-19.3-87.7-30.5
		c-16.6-7.2-32.1-14.3-46.3-21.2c-0.1,7.5-0.4,14.8-0.9,21.6c-0.7,9-2.5,17.1-5.3,24.3c-3.4,8.3-8.5,15.2-15.3,20.3
		c-7.2,5.4-16.9,8.2-28.8,8.2c-12.1,0-21.8-2.8-28.8-8.5c-6.3-5.1-11.2-11.8-14.5-19.9c-2.9-7.3-4.6-15.7-4.9-24.9
		c-0.3-7.6-0.4-15.9-0.4-24.7V527c0-24.2,6.1-39.7,18.7-47.6c10.1-6.4,21.1-9.6,32.5-9.6c11.8,0,22.5,3.5,31.8,10.3
		c10.9,8.1,16,23,16,47v346.5c2.3-3.1,4.8-6.1,7.3-9c17-19.6,37.6-36.5,61.1-50.2c22.9-13.4,48.5-24.5,76-33.1
		c26.9-8.4,54.4-15,81.7-19.8c27.4-4.8,54.4-7.3,80.2-7.3h66.8c52.6,0,103.2,5.5,150.4,16.3c48.1,11,90.9,30.3,127.2,57.2
		c36.6,27.2,66,63.8,87.4,108.9c21.3,44.9,32.1,101.5,32.1,168.2c0,65.7-8.9,122.4-26.4,168.4c-17.8,46.6-44.2,85-78.5,114.1
		c-34,28.9-76.4,50-125.8,62.9C2332.4,1462.8,2276.5,1469.2,2214.6,1469.2z M1841.5,1314.3c21.5,7.9,44.8,16,69.5,24.3
		c28,9.3,58.1,17.8,89.6,25.1c31.5,7.4,65.6,13.4,101.1,17.9c35.4,4.5,73.3,6.8,112.8,6.8c53.5,0,99.9-5.6,137.7-16.6
		c36.9-10.8,67.6-27.7,91.3-50.3c23.6-22.5,41.1-51.7,52.1-86.8c11.3-36,17-80,17-130.5c0-51.7-7.8-95.4-23.3-130.1
		c-15.3-34.3-36.3-62-62.3-82.2c-26.4-20.4-58-35.3-94-44.3c-36.9-9.2-76.7-13.8-118.4-13.8c-33.8,0-71.2,2.4-111.2,7.3
		c-39.7,4.8-78.1,13.4-114.3,25.7c-35.6,12.1-67.5,29.1-94.8,50.4c-25.5,20-43.3,46.4-52.9,78.6V1314.3z"/>
	<path class="st3" d="M1793.7,484.7c8.6,0,16.2,2.5,22.9,7.3c6.6,4.9,9.9,16.5,9.9,34.9v412c6.3-24.6,17.5-46.2,33.6-64.7
		c16.1-18.5,35.2-34.2,57.4-47.1c22.1-12.9,46.4-23.5,72.9-31.7c26.4-8.2,53-14.7,79.8-19.4c26.7-4.7,52.6-7,77.6-7s47.3,0,66.8,0
		c51.8,0,100.8,5.3,147.1,15.9c46.3,10.6,86.8,28.8,121.6,54.6c34.8,25.8,62.4,60.3,82.8,103.3c20.4,43,30.6,97,30.6,161.8
		c0,64.3-8.5,118.6-25.4,163.1c-17,44.5-41.7,80.5-74.2,108c-32.5,27.5-72.5,47.5-119.9,59.8c-47.4,12.3-101.7,18.5-162.6,18.5
		c-46.6,0-89.4-2.9-128.5-8.6c-39.1-5.7-74.6-13.1-106.5-22c-31.9-8.9-60.5-18.9-85.8-29.8c-25.3-10.9-47.7-21.6-67.3-31.9v20.7
		c0,8.7-0.3,16.7-0.9,24.2c-0.6,7.5-2,14.1-4.3,19.9c-2.3,5.8-5.8,10.4-10.4,13.8c-4.6,3.5-11.2,5.2-19.8,5.2
		c-8.6,0-15.1-1.7-19.4-5.2c-4.3-3.4-7.6-8.1-9.9-13.8c-2.3-5.7-3.6-12.4-3.9-19.8c-0.3-7.5-0.4-15.5-0.4-24.2V527
		c0-18.4,3.9-30,11.6-34.9C1776.9,487.2,1785.1,484.7,1793.7,484.7 M2214.6,1403.3c55.2,0,102.5-5.7,141.9-17.3
		c39.4-11.5,71.9-29.4,97.5-53.9c25.6-24.4,44.3-55.5,56.1-93.1c11.8-37.6,17.7-82.6,17.7-135c0-54-8.2-99.4-24.6-136.2
		c-16.4-36.8-38.7-66.1-66.8-88c-28.2-21.9-61.4-37.5-99.6-47c-38.3-9.5-78.9-14.2-122.1-14.2c-34.5,0-72.2,2.5-113,7.4
		c-40.8,4.9-79.9,13.7-117.3,26.4c-37.4,12.7-70.4,30.3-99.2,52.8c-28.8,22.5-48.3,51.9-58.6,88.2v331.4c24.7,9.2,51.3,18.5,79.8,28
		c28.5,9.5,58.8,18,91,25.5c32.2,7.5,66.4,13.6,102.6,18.1C2136.1,1401,2174.4,1403.3,2214.6,1403.3 M1793.7,454.7
		c-14.3,0-28,4-40.6,12c-6.8,4.3-16,12.6-21.2,28.3c-3,9-4.4,19.4-4.4,32v855.7c0,8.9,0.1,17.4,0.4,25.3c0.4,10.9,2.4,21,6,29.9
		c4.2,10.6,10.6,19.3,19,26.1c9.7,7.8,22.6,11.7,38.2,11.7c15.3,0,28-3.8,37.9-11.2c9-6.8,15.7-15.7,20.1-26.6l0,0l0,0
		c3.4-8.4,5.5-17.9,6.3-28.2c8.4,3.9,17.2,7.8,26.4,11.8c26.4,11.4,56.6,21.9,89.6,31.1c33,9.2,70.1,16.9,110.3,22.8
		c40.5,5.9,85.2,8.9,132.9,8.9c63.1,0,120.4-6.5,170.1-19.5c51.6-13.4,96-35.6,131.7-66c36.2-30.7,64.1-71.2,82.8-120.2
		c18.2-47.7,27.4-106.2,27.4-173.8c0-34.1-2.8-66-8.2-94.7c-5.6-29.4-14.1-56.3-25.4-80c-22.5-47.3-53.4-85.8-92-114.5
		c-38-28.2-82.6-48.3-132.8-59.8c-48.4-11.1-100.1-16.7-153.8-16.7h-66.8c-26.6,0-54.5,2.5-82.8,7.5c-27.9,4.9-56,11.7-83.5,20.3
		c-28.5,8.9-55.2,20.5-79.1,34.4c-16.8,9.8-32.1,21.1-45.9,33.8V527c0-12.1-1.2-22.1-3.6-30.7c-3.5-12.3-9.7-21.8-18.5-28.3
		C1822.5,459.2,1808.8,454.7,1793.7,454.7L1793.7,454.7z M1856.5,997.7c8.8-28.5,24.3-51.1,47.1-69c25.9-20.3,56.3-36.4,90.4-48
		c35.1-11.9,72.6-20.4,111.2-25c39.4-4.7,76.3-7.2,109.4-7.2c40.5,0,79.1,4.5,114.8,13.4c34,8.4,63.8,22.4,88.4,41.6
		c24.1,18.7,43.6,44.4,57.8,76.5c14.6,32.8,22,74.5,22,124c0,49-5.5,91.4-16.3,126c-10.2,32.6-26.4,59.6-48.1,80.4
		c-22,21-50.6,36.7-85.1,46.8c-36.5,10.7-81.4,16.1-133.5,16.1c-38.9,0-76.2-2.2-110.9-6.7c-35.1-4.4-68.6-10.4-99.6-17.6
		c-31.1-7.2-60.8-15.5-88.3-24.7c-20.9-7-40.7-13.8-59.3-20.5V997.7L1856.5,997.7z"/>
</g>
<g>
	<path class="st3" d="M3178.9,1469.2c-50.5,0-98.8-3.8-143.5-11.3c-45.2-7.6-85.1-19.8-118.8-36.4c-34.5-17-62.2-39.4-82.2-66.6
		c-20.5-27.9-30.9-61.8-30.9-100.9c0-44.3,9.6-82,28.6-112c18.8-29.7,45.2-53.9,78.4-71.9c32.4-17.5,70.7-30,113.8-37.1
		c42.3-6.9,88.5-10.5,137.4-10.5h109.1c37.1,0,72.9,3,106.5,8.9c33.2,5.8,64.1,13.1,92,21.7c17.9,5.5,34.2,11.8,48.6,18.7
		c-1.9-45.7-9.2-83.5-21.6-112.6c-14.5-33.7-33.8-60.2-57.5-78.8c-23.9-18.7-51.8-31.3-83-37.5c-32.5-6.5-66.8-9.8-101.9-9.8
		c-54.6,0-101.8,1.4-140.4,4.3c-38.3,2.8-71.7,6.5-99.2,11c-27.2,4.5-50.3,9.3-68.8,14.3c-18.6,5.1-35.1,10.2-48.9,15.2l-2.5,0.9
		h-2.6c-7.9,0-19.7-2.7-30.5-15.8c-8-9.6-12.1-20.4-12.1-32c0-13.2,6.6-23.8,18.6-29.8c3.7-1.8,10.9-4.9,34.7-12.1
		c17.5-5.3,42.2-10.8,73.3-16.4c30.8-5.5,69.8-10.3,116-14.4c45.9-4,100.8-6.1,163.1-6.1c29.7,0,59.7,1.9,89,5.7
		c29.8,3.9,58.4,11,84.9,21.1c26.9,10.3,52.3,24.7,75.5,42.8c23.6,18.4,44,42.3,60.7,71.2c16.5,28.4,29.6,63.2,39.1,103.3
		c9.4,39.8,14.2,87,14.2,140.2v248.5c0,7.1-0.3,14.4-0.9,21.9c-0.7,8.6-2.7,16.7-5.9,24.2c-3.5,8.2-8.6,15.1-15.1,20.4
		c-7.3,5.9-16.9,9-28.4,9c-19.3,0-33.9-9.7-41.1-27.3c-5.7-13.9-8.4-30.6-8.4-51v-21c-6.3,5.9-13,11.9-20.2,18
		c-19.4,16.2-44,31.2-73.3,44.5c-29,13.2-64,24.2-104,32.7C3280.9,1464.9,3233.1,1469.2,3178.9,1469.2z M3168.6,1100.3
		c-43.3,0-82.4,2.6-116.4,7.6c-33,4.9-61.2,13.4-83.7,25.2c-21.5,11.3-38.1,26.6-49.2,45.6c-11.2,19.1-16.9,43.9-16.9,73.8
		c0,24.5,5.9,44.4,18.2,60.9c12.5,16.9,30.5,31,53.5,41.9c23.8,11.4,52.8,19.8,86,25c33.7,5.3,71.4,8,112,8
		c49.5,0,93.9-3.5,131.9-10.4c38.1-6.9,71.8-15.7,100.2-26.1c28.2-10.4,52.2-21.7,71.3-33.9c16.9-10.7,31.3-21.1,43.1-31.1v-151.1
		c-53-8.2-108.6-16.1-165.5-23.5C3292.2,1104.3,3230.2,1100.3,3168.6,1100.3z"/>
	<path class="st3" d="M3254.8,767.4c29.3,0,58.3,1.9,87.1,5.6c28.8,3.8,55.9,10.5,81.5,20.3c25.6,9.8,49.5,23.3,71.6,40.6
		c22.1,17.3,41.1,39.6,56.9,66.9c15.8,27.3,28.3,60.4,37.5,99.3c9.2,38.8,13.8,84.4,13.8,136.8v248.5c0,6.9-0.3,13.8-0.9,20.7
		c-0.6,6.9-2.2,13.4-4.7,19.4s-6.2,10.9-10.8,14.7c-4.6,3.8-10.9,5.6-19,5.6c-13.2,0-22.3-6-27.2-17.9c-4.9-12-7.3-27.1-7.3-45.3
		v-59c-11.5,14.2-26.5,29.1-44.9,44.4c-18.4,15.4-41.7,29.5-69.9,42.3c-28.2,12.8-61.8,23.4-100.9,31.6
		c-39.1,8.3-85.4,12.4-138.9,12.4c-50,0-97-3.7-141-11.1c-44-7.4-82.2-19.1-114.7-35.1c-32.5-16-58.1-36.6-76.8-62
		c-18.7-25.4-28-56-28-92c0-41.6,8.7-76.3,26.3-103.9c17.5-27.7,41.8-49.9,72.9-66.7c31.1-16.8,67.4-28.6,109.1-35.5
		c41.7-6.8,86.7-10.3,135-10.3c36.2,0,72.6,0,109.1,0c36.5,0,71.2,2.9,103.9,8.6c32.8,5.7,62.8,12.8,90.1,21.3
		c27.3,8.4,50.2,18.4,68.6,29.9c0-59.7-7.8-107.7-23.3-144c-15.5-36.3-36.2-64.5-62.1-84.7c-25.9-20.2-55.6-33.7-89.3-40.4
		c-33.6-6.7-68.6-10.1-104.8-10.1c-55.2,0-102.4,1.4-141.5,4.3c-39.1,2.9-72.6,6.6-100.5,11.2c-27.9,4.6-51.3,9.5-70.3,14.6
		c-19,5.2-35.7,10.4-50,15.5c-6.9,0-13.2-3.5-19-10.4c-5.7-6.9-8.6-14.4-8.6-22.4c0-7.5,3.5-12.9,10.4-16.4
		c4.6-2.3,15.4-6,32.3-11.2c16.9-5.2,40.8-10.5,71.6-16s69-10.2,114.7-14.2C3138.8,769.4,3192.7,767.4,3254.8,767.4 M3172,1403.3
		c50.6,0,95.4-3.5,134.6-10.6c39.1-7.1,73.3-16,102.6-26.7c29.3-10.8,54-22.5,74.2-35.3c20.1-12.8,36.8-25.1,50-37v-170.8
		c-57.5-9-117-17.5-178.5-25.5c-61.5-8-123.7-12.1-186.3-12.1c-44.3,0-83.8,2.6-118.6,7.8c-34.8,5.2-64.3,14.1-88.4,26.7
		c-24.2,12.6-42.6,29.8-55.2,51.3c-12.6,21.5-19,48.7-19,81.4c0,27.6,7,50.8,21.1,69.8c14.1,19,33.8,34.5,59.1,46.5
		c25.3,12.1,55.3,20.8,90.1,26.3C3092.5,1400.6,3130.6,1403.3,3172,1403.3 M3254.8,737.4c-62.7,0-118,2.1-164.4,6.2
		c-46.6,4.1-86.1,9-117.3,14.6c-32.2,5.7-56.7,11.2-75.1,16.8c-24.7,7.5-32.6,10.8-37,13.1c-17.1,8.6-26.9,24.3-26.9,43.2
		c0,15,5.4,29.4,15.5,41.6c14.6,17.5,30.9,21.2,42.1,21.2h5.2l4.9-1.8c13.4-4.8,29.5-9.8,47.8-14.8c18-4.9,40.6-9.6,67.3-14
		c27.1-4.4,60-8.1,97.8-10.9c38.2-2.8,85-4.2,139.3-4.2c34.1,0,67.4,3.2,98.9,9.5c28.8,5.8,54.6,17.4,76.7,34.6
		c21.7,17,39.5,41.5,53,72.9c9.5,22.2,15.8,50.1,18.8,83.2c-8.8-3.4-18-6.6-27.6-9.6c-28.4-8.8-60-16.2-93.8-22.2
		c-34.4-6-71.2-9.1-109.1-9.1h-109.1c-49.7,0-96.8,3.6-139.9,10.7c-44.8,7.4-84.7,20.4-118.5,38.7c-35.5,19.2-63.7,45.2-83.9,77
		c-20.5,32.4-31,72.7-31,120c0,42.3,11.4,79.3,33.9,109.8c21.5,29.2,51,53.1,87.7,71.2c35,17.2,76.4,29.9,123,37.7
		c45.5,7.7,94.7,11.5,146,11.5c55.2,0,104.1-4.4,145.1-13c41.1-8.7,77.1-20,107.1-33.7c28.5-12.9,52.9-27.5,72.6-43.3
		c0.9,17.2,4,32,9.2,44.9c9.5,23.3,29.5,36.6,55,36.6c15.1,0,27.9-4.2,37.9-12.3c8.4-6.8,14.9-15.6,19.4-26.1
		c3.8-9,6.2-18.6,7.1-28.8l0-0.1l0-0.1c0.6-7.9,1-15.7,1-23.1v-248.5c0-54.4-4.9-102.7-14.6-143.7c-9.9-41.6-23.6-77.7-40.8-107.4
		c-17.7-30.5-39.3-55.9-64.4-75.5c-24.4-19-51.1-34.1-79.3-44.9c-27.7-10.6-57.4-18-88.4-22C3315.8,739.3,3285.2,737.4,3254.8,737.4
		L3254.8,737.4z M3172,1373.3c-39.8,0-76.7-2.6-109.6-7.8c-31.8-5-59.3-13-81.9-23.7c-20.7-9.9-36.9-22.4-47.9-37.3
		c-10.2-13.8-15.2-30.8-15.2-51.9c0-27.2,5-49.5,14.8-66.2c9.8-16.8,24-29.8,43.2-39.9c21-11,47.6-18.9,78.9-23.6
		c33.2-4.9,71.6-7.4,114.2-7.4c61,0,122.4,4,182.4,11.8c52.2,6.8,103.4,14,152.4,21.5v131.2c-10.2,8.2-22.3,16.7-36.1,25.5
		c-18.2,11.5-41.2,22.5-68.4,32.5c-27.6,10.1-60.4,18.7-97.6,25.4C3264.1,1369.9,3220.6,1373.3,3172,1373.3L3172,1373.3z"/>
</g>
<g>
	<path class="st3" d="M3901.7,1460.7c-11.2,0-20.7-2.7-28.1-7.9c-7.3-5.1-12.7-12-16-20.5c-2.9-7.1-4.7-15.1-5.3-23.8
		c-0.6-7.4-0.9-15.2-0.9-23.1v-552c0-15.5,2.8-29.1,8.4-40.6c5-10.3,16.9-22.7,45.4-22.7c25.2,0,34.9,14.5,38.4,23.1
		c4.5,11,6.8,24.5,6.8,40.1v30.1c6.7-9.6,14.2-18.5,22.5-26.5c23.9-23,50.9-41,80.5-53.5c29-12.3,59.1-20.6,89.6-24.8
		c29.8-4.1,56.7-6.2,79.7-6.2c22.2,0,41.6,0.7,57.8,2.2c16.1,1.5,30.3,3.2,42.2,5.3c11.9,2.1,22.5,4.4,31.5,6.7
		c8.2,2.2,16.4,4.4,25.2,6.9c10,2.7,17.9,8.5,22.7,16.7c4.2,7.2,6.4,15.1,6.4,23.5c0,10.8-3.5,20.8-10.5,29.8
		c-5.4,7-15.6,15.2-33.8,15.2c-4.3,0-7.6-0.2-10.5-1.4c-0.4-0.1-1.2-0.3-2.9-0.7l-0.5-0.1l-0.5-0.1c-21.8-6.1-42.9-11-62.7-14.3
		c-19.5-3.3-41.2-5-64.3-5c-32.6,0-64.2,3.2-93.9,9.6c-29.2,6.3-56,16-79.7,28.8c-23.4,12.7-43.9,29-61,48.6
		c-16.5,18.9-29.2,41.3-37.7,66.6v394.5c0,16.5-2.3,31.9-6.8,46C3937.6,1450.2,3922.7,1460.7,3901.7,1460.7z"/>
	<path class="st3" d="M4222.6,767.4c21.8,0,40.7,0.7,56.5,2.2c15.8,1.4,29.5,3.1,41,5.1c11.5,2,21.6,4.2,30.2,6.5
		c8.6,2.3,16.9,4.6,25,6.8c6.3,1.7,10.9,5,13.8,9.9s4.3,10.2,4.3,15.9c0,7.5-2.5,14.3-7.3,20.6c-4.9,6.3-12.2,9.4-22,9.4
		c-2.9,0-4.6-0.1-5.2-0.4s-2.3-0.7-5.2-1.3c-22.4-6.3-43.9-11.2-64.3-14.7c-20.4-3.5-42.7-5.2-66.8-5.2c-33.9,0-66.3,3.3-97,10
		c-30.8,6.6-58.7,16.7-83.7,30.3c-25,13.6-46.7,30.9-65.1,51.9c-18.4,21.1-32.2,45.7-41.4,74v397c0,15-2,28.8-6,41.4
		c-4,12.7-13.2,19-27.6,19c-8.1,0-14.5-1.7-19.4-5.2c-4.9-3.4-8.5-8.1-10.8-13.8c-2.3-5.7-3.8-12.2-4.3-19.4
		c-0.6-7.2-0.9-14.5-0.9-22v-552c0-13.2,2.3-24.6,6.9-34.1c4.6-9.5,15.2-14.2,31.9-14.2c12.6,0,20.8,4.6,24.6,13.8
		c3.8,9.2,5.6,20.7,5.6,34.4v99.9c9.2-35.1,25.1-63.6,47.9-85.5c22.7-21.9,48-38.7,75.9-50.5c27.9-11.8,56.5-19.7,85.8-23.7
		S4200.1,767.4,4222.6,767.4 M4222.6,737.4c-23.7,0-51.2,2.1-81.7,6.3c-31.8,4.4-63.2,13.1-93.4,25.8c-30.1,12.8-57.8,30.9-82.4,54
		c-0.8-13.6-3.3-25.5-7.6-36c-8.4-20.6-27.5-32.4-52.3-32.4c-12.7,0-23.4,2-32.7,6.2c-11.8,5.2-20.8,13.9-26.2,25l0,0
		c-6.6,13.5-9.9,29.4-9.9,47.2v552c0,8.3,0.3,16.5,0.9,24.4c0.8,10.2,2.9,19.7,6.4,28.2c4.5,11.2,11.6,20.3,21.3,27.1
		c10,7.1,22.4,10.7,36.7,10.7c13.3,0,25-3.4,34.7-10c10.1-6.9,17.5-17.2,21.5-29.9c4.9-15.5,7.5-32.5,7.5-50.5v-392
		c7.9-22.5,19.3-42.4,34-59.2c15.9-18.2,35-33.5,56.8-45.3c22.4-12.1,47.9-21.3,75.7-27.3c28.6-6.2,59.1-9.3,90.7-9.3
		c22.3,0,43.1,1.6,61.8,4.8c19.3,3.3,39.9,8,61.1,14l1,0.3l1,0.2c0.8,0.2,1.3,0.3,1.7,0.4c5.3,1.8,10.4,2,14.9,2
		c24.2,0,38.2-11.4,45.7-21c8.9-11.5,13.6-25,13.6-39c0-11.1-2.9-21.6-8.5-31.1c-6.9-11.6-17.8-19.8-31.7-23.5
		c-8.8-2.5-17.1-4.7-25.3-6.9c-9.4-2.5-20.4-4.9-32.7-7l0,0l0,0c-12.2-2.1-26.8-3.9-43.4-5.4
		C4265.1,738.1,4245.2,737.4,4222.6,737.4L4222.6,737.4z"/>
</g>
<g>
	<path class="st3" d="M4807.4,1467.7c-32.4,0-63.2-4.6-91.3-13.7c-28.9-9.3-54.3-24.6-75.7-45.5c-21.4-20.9-38.4-48.7-50.3-82.7
		c-11.7-33.4-17.7-74.8-17.7-123V851.2h-60.9c-12.3,0-22.1-3.7-29-11c-6.6-7-10.2-15.4-10.2-24.3c0-8.9,3.5-17.3,10.2-24.3
		c7-7.3,16.7-11,29-11h60.9V580.9c0-24,5.9-39.6,18-47.5c9.9-6.5,20.5-9.8,31.5-9.8c13,0,24.3,3.5,33.5,10.3c10.9,8.1,16,23,16,47
		v199.8h271.4c12.6,0,22.7,3.6,29.9,10.6c9.1,9,11,18.4,11,24.7c0,6.3-1.9,15.8-11,24.7c-7.1,7-17.2,10.6-29.9,10.6h-271.4v351.7
		c0,40.3,4.1,73.1,12.2,97.3c7.8,23.6,18.3,41.9,31.2,54.6c12.8,12.6,27.5,20.8,44.8,25.1c18.5,4.6,38.6,6.9,59.8,6.9
		c25.7,0,51.2-4.6,75.9-13.7c25.7-9.5,55.8-23.5,89.6-41.5l0.4-0.2c9-4.5,17.9-6.8,26.5-6.8c14.4,0,23.3,5.9,28.3,10.9
		c7.1,7.1,10.9,16.3,10.9,26.6c0,11.9-4.6,28.7-26.8,40.8c-24.5,13.4-46.5,24.4-65.5,32.6c-19.3,8.3-37.3,14.9-53.5,19.6
		c-16.6,4.8-32.9,8.2-48.6,10C4840.9,1466.8,4824.3,1467.7,4807.4,1467.7z"/>
	<path class="st3" d="M4621.9,538.6c9.8,0,18,2.5,24.6,7.3c6.6,4.9,9.9,16.5,9.9,34.9v214.8h286.4c8.6,0,15.1,2.1,19.4,6.3
		c4.3,4.3,6.5,8.9,6.5,14c0,5.1-2.2,9.7-6.5,14c-4.3,4.3-10.8,6.3-19.4,6.3h-286.4v366.7c0,42.1,4.3,76.1,12.9,102.1
		c8.6,25.9,20.3,46.1,34.9,60.5c14.7,14.4,31.9,24.1,51.8,29c19.8,4.9,41,7.3,63.4,7.3c27.6,0,54.6-4.9,81.1-14.7
		c26.4-9.8,56.9-23.9,91.4-42.4c6.9-3.5,13.5-5.2,19.8-5.2c7.5,0,13.4,2.2,17.7,6.5c4.3,4.3,6.5,9.6,6.5,16c0,11.5-6.3,20.7-19,27.6
		c-24.2,13.2-45.6,23.9-64.3,32c-18.7,8.1-35.9,14.4-51.8,19c-15.8,4.6-31.2,7.8-46.1,9.5c-15,1.7-30.7,2.6-47.4,2.6
		c-31.1,0-59.9-4.3-86.7-13c-26.7-8.6-50-22.6-69.9-41.9c-19.8-19.3-35.4-45-46.6-77c-11.2-32-16.8-71.3-16.8-118V836.2h-75.9
		c-8.1,0-14.1-2.1-18.1-6.3c-4-4.2-6-8.9-6-14c0-5.1,2-9.7,6-14c4-4.2,10-6.3,18.1-6.3h75.9V580.9c0-18.4,3.7-30,11.2-34.9
		C4606.1,541.1,4613.9,538.6,4621.9,538.6 M4621.9,508.6c-13.9,0-27.3,4.1-39.7,12.2c-9.6,6.3-16.6,15.8-20.6,28.4
		c-2.8,8.9-4.2,19.2-4.2,31.7v184.8h-45.9c-20.6,0-33,8.5-39.8,15.6l0,0l0,0c-9.3,9.8-14.3,21.8-14.3,34.6
		c0,12.8,4.9,24.8,14.3,34.6l0,0c6.8,7.2,19.2,15.7,39.9,15.7h45.9v336.6c0,49.9,6.2,92.9,18.5,127.9c12.7,36.2,30.9,66,54,88.5
		c23,22.5,50.5,38.9,81.6,49c29.6,9.6,61.9,14.4,95.9,14.4c17.5,0,34.6-0.9,50.8-2.8l0,0l0,0c16.5-1.9,33.6-5.4,51-10.5
		c16.8-4.9,35.4-11.7,55.3-20.3c19.4-8.4,41.9-19.5,66.8-33.2c30.1-16.4,34.5-40.8,34.5-53.9c0-14.4-5.3-27.2-15.2-37.2
		c-7-7-19.4-15.3-38.9-15.3c-11,0-22.1,2.8-33.2,8.4l-0.4,0.2l-0.4,0.2c-33.2,17.7-62.7,31.4-87.7,40.7
		c-22.9,8.5-46.7,12.8-70.6,12.8c-20,0-38.9-2.2-56.2-6.5c-14.7-3.6-27.1-10.6-37.9-21.3c-11.2-11-20.4-27.3-27.5-48.6
		c-7.6-22.8-11.4-53.9-11.4-92.6V866.2h256.4c20.9,0,33.5-8.1,40.5-15c12.7-12.5,15.4-26.1,15.4-35.3c0-9.2-2.7-22.7-15.4-35.3l0,0
		l0,0c-6.9-6.8-19.6-14.9-40.4-14.9h-256.4V580.9c0-12.1-1.2-22.1-3.6-30.7c-3.5-12.3-9.7-21.8-18.4-28.3l0,0l0,0
		C4652.4,513,4638.2,508.6,4621.9,508.6L4621.9,508.6z"/>
</g>
<g>
	<path class="st4" d="M6289.2,1460.7c-5.4,0-10.4-0.3-15.1-1c-6.8-1-13-3.8-18.7-8.5c-5.6-4.7-9.9-11.5-12.8-20.1
		c-2.5-7.6-3.8-17.5-3.8-30.2v-377.1c0-38.3-3.2-70.5-9.5-95.6c-6-24.1-15.1-43.4-27.1-57.3c-11.8-13.7-26-23.1-43.6-28.7
		c-18.6-5.8-41.1-8.8-67.1-8.8c-70.4,0-129.5,14.4-175.4,42.7c-45.2,27.9-83.6,66.5-114,114.9v409.9c0,12.2-1.3,21.7-3.9,29.1
		c-2.8,8.1-7,14.7-12.2,19.5c-5.3,4.9-11.2,8.1-17.5,9.6c-4.7,1.1-9.5,1.7-14.1,1.7c-4.8,0-9.6-0.3-14.5-1c-7.1-1-13.6-3.8-19.2-8.5
		c-5.5-4.5-9.8-11.1-13-19.6c-3-7.7-4.4-17.8-4.4-30.8V986.5c0-48.6-11.2-86.9-33.3-113.9c-21.4-26.1-57.1-39.4-106.1-39.4
		c-39.4,0-76.4,4.5-110,13.3c-33.7,8.8-64,20.8-90,35.7c-25.7,14.6-47.5,32-64.7,51.7c-16.3,18.6-27.8,38.3-34.2,58.4v408.5
		c0,25.8-5.1,41.5-16,49.6c-9.2,6.8-19,10.3-29.2,10.3c-4.7,0-9.7-0.3-14.8-1c-7.3-0.9-13.9-3.6-19.8-8.2
		c-5.8-4.4-10.4-10.8-14.1-19.4c-3.4-7.9-5.1-18.2-5.1-31.4V827.3c0-24,5.9-39.6,18-47.5c9.9-6.5,20.8-9.8,32.4-9.8
		c13.2,0,24.3,3.6,33.1,10.6c10,8.1,14.7,22.9,14.7,46.6v46.5c5.4-7.2,11.3-14.2,17.7-20.9c20.9-21.8,46-40.4,74.7-55.2
		c28.4-14.6,60.5-26,95.5-33.7c34.9-7.7,71.9-11.6,110.2-11.6c45.6,0,83.1,6.4,111.7,19c28.6,12.6,51.4,28.5,67.7,47
		c16.2,18.4,27.8,38,34.5,58.3c1.9,5.7,3.6,11.1,5.1,16.3c7.4-9.7,15.6-19.6,24.8-29.5c18.3-19.8,41.1-38.3,67.8-54.8
		c26.6-16.5,58.2-30.1,93.8-40.5c35.7-10.4,76.9-15.7,122.4-15.7c83.3,0,146.2,22.1,186.9,65.6c20.5,21.9,36,50.6,46.1,85.3
		c9.8,33.8,14.8,74.3,14.8,120.3v377.1c0,12.4-1.5,22.1-4.5,29.7c-3.1,7.8-6.9,13.8-11.5,18.4c-5.2,5.2-11.4,8.6-18.3,10.1
		C6298.6,1460.1,6293.8,1460.7,6289.2,1460.7z"/>
	<path class="st4" d="M6089.9,767.4c79.4,0,138,20.3,176,60.9c38,40.6,56.9,105.7,56.9,195.4v377.1c0,10.4-1.2,18.4-3.5,24.2
		c-2.3,5.7-5.1,10.2-8.2,13.4c-3.2,3.2-6.8,5.2-10.8,6c-4,0.9-7.8,1.3-11.2,1.3c-4.6,0-8.9-0.3-12.9-0.9c-4-0.6-7.8-2.3-11.2-5.2
		c-3.5-2.9-6.2-7.3-8.2-13.4s-3-14.5-3-25.5v-377.1c0-39.7-3.3-72.8-9.9-99.3c-6.6-26.4-16.7-47.6-30.2-63.4
		c-13.5-15.8-30.3-26.9-50.5-33.2c-20.1-6.3-44-9.5-71.6-9.5c-73.6,0-134.7,15-183.3,44.9c-48.6,29.9-89,71.1-121.2,123.4v414.2
		c0,10.4-1,18.4-3,24.2c-2,5.7-4.7,10.2-8.2,13.4c-3.5,3.2-7,5.2-10.8,6c-3.8,0.9-7.3,1.3-10.8,1.3c-4,0-8.2-0.3-12.5-0.9
		c-4.3-0.6-8.2-2.3-11.6-5.2c-3.4-2.9-6.3-7.3-8.6-13.4c-2.3-6-3.5-14.5-3.5-25.5V986.5c0-52.3-12.2-93.5-36.7-123.4
		c-24.5-29.9-63.7-44.9-117.7-44.9c-40.8,0-78.8,4.6-113.9,13.8c-35.1,9.2-66.3,21.6-93.6,37.1c-27.3,15.5-50.2,33.8-68.6,54.8
		c-18.4,21-31.1,43-38,66v410.8c0,20.1-3.3,32.7-9.9,37.5c-6.6,4.9-13.4,7.3-20.3,7.3c-4,0-8.4-0.3-12.9-0.9
		c-4.6-0.6-8.8-2.3-12.5-5.2c-3.8-2.9-6.9-7.3-9.5-13.4c-2.6-6-3.9-14.5-3.9-25.4V827.3c0-18.4,3.7-30,11.2-34.9
		c7.5-4.9,15.5-7.3,24.2-7.3c9.8,0,17.7,2.5,23.7,7.3c6,4.9,9.1,16.5,9.1,34.9v105.9c9.2-25.9,23.7-49.2,43.6-69.9
		c19.8-20.7,43.4-38.1,70.7-52.2c27.3-14.1,57.9-24.9,91.9-32.3c33.9-7.5,69.6-11.2,107-11.2c43.7,0,78.9,5.9,105.7,17.7
		c26.7,11.8,47.6,26.2,62.5,43.2c15,17,25.4,34.7,31.5,53.1c6,18.4,10.5,34.3,13.4,47.5c10.4-17.8,24.3-36.2,41.8-55.2
		c17.5-19,39.1-36.4,64.7-52.2c25.6-15.8,55.6-28.8,90.1-38.8C6006.3,772.4,6045.7,767.4,6089.9,767.4 M6089.9,737.4
		c-46.9,0-89.5,5.5-126.6,16.3c-36.9,10.8-69.8,25-97.5,42.1c-27.8,17.2-51.7,36.5-70.9,57.4c-2.8,3-5.5,6.1-8.2,9.1
		c-7.6-18.8-18.9-36.9-34-53.9c-17.8-20.2-42.3-37.3-72.9-50.8c-30.9-13.6-69.4-20.2-117.8-20.2c-39.3,0-77.5,4-113.4,11.9
		c-36.2,8-69.6,19.8-99.1,35c-26.5,13.7-50.2,30.5-70.5,50v-7.1c0-18-2.1-43.5-20.2-58.2l0,0l0,0c-11.5-9.2-25.8-13.9-42.5-13.9
		c-14.5,0-28.2,4.1-40.6,12.3c-9.6,6.3-16.5,15.8-20.5,28.3c-2.8,8.9-4.2,19.2-4.2,31.7v573.5c0,15.2,2.1,27.4,6.3,37.3l0,0
		c4.6,10.8,11,19.3,18.8,25.3c8,6.2,17.2,10,27.1,11.2c5.7,0.7,11.3,1.1,16.6,1.1c13.4,0,26.2-4.4,38.1-13.2
		c19.8-14.6,22.1-42.2,22.1-61.7V994.7c5.9-17.4,16.1-34.5,30.5-50.9c16.1-18.4,36.6-34.7,60.8-48.5c24.9-14.2,54-25.7,86.4-34.2
		c32.4-8.5,68.1-12.8,106.2-12.8c45,0,75.9,11.1,94.5,33.9c19.8,24.3,29.9,59.4,29.9,104.4v414.3c0,14.8,1.8,26.6,5.4,36.2
		c4.1,10.9,10,19.5,17.5,25.7c7.7,6.4,17,10.5,26.8,11.9c5.5,0.7,11.1,1.1,16.5,1.1c5.8,0,11.7-0.7,17.6-2.1
		c8.8-2,16.9-6.5,24.2-13.1c7.1-6.5,12.6-15.1,16.2-25.5c3.2-9.1,4.7-20.2,4.7-34.1V995.2c28.8-44.8,64.8-80.6,106.9-106.5
		c43.6-26.8,100-40.5,167.6-40.5c24.4,0,45.4,2.7,62.6,8.1c14.8,4.7,26.8,12.5,36.6,24.1c10.4,12.2,18.4,29.4,23.9,51.2
		c6,24,9,54.9,9,92v377.1c0,14.3,1.5,25.8,4.5,35c3.8,11.4,9.7,20.4,17.5,26.9c7.8,6.5,16.6,10.4,26.1,11.8
		c5.4,0.8,11.1,1.2,17.2,1.2c5.6,0,11.5-0.7,17.5-2c9.7-2.1,18.4-6.8,25.7-14.2c6-6,11-13.8,14.8-23.3l0-0.1l0-0.1
		c3.8-9.4,5.6-21,5.6-35.3v-377.1c0-47.5-5.2-89.4-15.4-124.5c-10.8-37-27.5-67.7-49.6-91.4c-22.3-23.8-50.7-41.8-84.6-53.5
		C6170.9,743,6132.8,737.4,6089.9,737.4L6089.9,737.4z"/>
</g>
<g>
	<path class="st4" d="M6925.7,1469.2c-50.5,0-98.8-3.8-143.5-11.3c-45.2-7.6-85.1-19.8-118.8-36.4c-34.5-17-62.2-39.4-82.2-66.6
		c-20.5-27.9-30.9-61.8-30.9-100.9c0-44.4,9.6-82,28.6-112c18.8-29.7,45.2-53.9,78.4-71.9c32.4-17.5,70.7-30,113.8-37.1
		c42.3-6.9,88.5-10.5,137.4-10.5h109.1c37.1,0,72.9,3,106.5,8.9c33.2,5.8,64.1,13.1,92,21.7c17.9,5.5,34.2,11.8,48.6,18.7
		c-1.9-45.7-9.2-83.5-21.6-112.6c-14.5-33.7-33.8-60.2-57.5-78.8c-23.9-18.7-51.8-31.3-83-37.5c-32.5-6.5-66.8-9.8-101.9-9.8
		c-54.6,0-101.8,1.4-140.4,4.3c-38.3,2.8-71.7,6.5-99.2,11c-27.2,4.5-50.3,9.3-68.8,14.3c-18.6,5.1-35.1,10.2-48.9,15.2l-2.5,0.9
		h-2.6c-7.9,0-19.7-2.7-30.5-15.8c-8-9.6-12.1-20.4-12.1-32c0-13.2,6.6-23.8,18.6-29.8c3.7-1.8,10.9-4.9,34.7-12.1
		c17.5-5.3,42.2-10.8,73.3-16.4c30.8-5.5,69.8-10.3,116-14.4c45.9-4,100.8-6.1,163.1-6.1c29.7,0,59.7,1.9,89,5.7
		c29.8,3.9,58.4,11,84.9,21.1c26.9,10.3,52.3,24.7,75.5,42.8c23.6,18.4,44,42.3,60.7,71.2c16.5,28.4,29.6,63.2,39.1,103.3
		c9.4,39.8,14.2,87,14.2,140.2v248.5c0,7.1-0.3,14.4-0.9,21.9c-0.7,8.6-2.7,16.7-5.9,24.1c-3.5,8.2-8.6,15.1-15.1,20.4
		c-7.3,5.9-16.9,9-28.4,9c-19.3,0-33.9-9.7-41.1-27.3c-5.7-13.9-8.4-30.6-8.4-51v-21c-6.3,5.9-13,11.9-20.2,18
		c-19.4,16.2-44,31.2-73.3,44.5c-29,13.2-64,24.2-104,32.7C7027.7,1464.9,6979.9,1469.2,6925.7,1469.2z M6915.4,1100.3
		c-43.3,0-82.4,2.6-116.4,7.6c-33,4.9-61.2,13.4-83.7,25.2c-21.5,11.3-38.1,26.6-49.2,45.6c-11.2,19.1-16.9,43.9-16.9,73.8
		c0,24.5,5.9,44.4,18.2,60.9c12.5,16.9,30.5,31,53.5,41.9c23.8,11.4,52.8,19.8,86,25c33.7,5.3,71.4,8,112,8
		c49.5,0,93.9-3.5,131.9-10.4c38.1-6.9,71.8-15.7,100.2-26.1c28.2-10.4,52.2-21.7,71.3-33.9c16.9-10.7,31.3-21.1,43.1-31.1v-151.1
		c-53-8.2-108.6-16.1-165.5-23.5C7039,1104.3,6977,1100.3,6915.4,1100.3z"/>
	<path class="st4" d="M7001.6,767.4c29.3,0,58.3,1.9,87.1,5.6c28.8,3.8,55.9,10.5,81.5,20.3c25.6,9.8,49.5,23.3,71.6,40.6
		c22.1,17.3,41.1,39.6,56.9,66.9c15.8,27.3,28.3,60.4,37.5,99.3c9.2,38.8,13.8,84.4,13.8,136.8v248.5c0,6.9-0.3,13.8-0.9,20.7
		c-0.6,6.9-2.2,13.4-4.7,19.4c-2.6,6-6.2,10.9-10.8,14.7c-4.6,3.8-10.9,5.6-19,5.6c-13.2,0-22.3-6-27.2-17.9s-7.3-27.1-7.3-45.3v-59
		c-11.5,14.2-26.5,29.1-44.9,44.4c-18.4,15.4-41.7,29.5-69.9,42.3c-28.2,12.8-61.8,23.4-100.9,31.6c-39.1,8.3-85.4,12.4-138.9,12.4
		c-50,0-97-3.7-141-11.1c-44-7.4-82.2-19.1-114.7-35.1c-32.5-16-58.1-36.6-76.8-62c-18.7-25.4-28-56-28-92
		c0-41.6,8.7-76.3,26.3-103.9c17.5-27.7,41.8-49.9,72.9-66.7c31.1-16.8,67.4-28.6,109.1-35.5c41.7-6.8,86.7-10.3,135-10.3
		c36.2,0,72.6,0,109.1,0c36.5,0,71.2,2.9,103.9,8.6c32.8,5.7,62.8,12.8,90.1,21.3c27.3,8.4,50.2,18.4,68.6,29.9
		c0-59.7-7.8-107.7-23.3-144c-15.5-36.3-36.2-64.5-62.1-84.7c-25.9-20.2-55.6-33.7-89.3-40.4c-33.6-6.7-68.6-10.1-104.8-10.1
		c-55.2,0-102.4,1.4-141.5,4.3c-39.1,2.9-72.6,6.6-100.5,11.2c-27.9,4.6-51.3,9.5-70.3,14.6c-19,5.2-35.7,10.4-50,15.5
		c-6.9,0-13.2-3.5-19-10.4c-5.7-6.9-8.6-14.4-8.6-22.4c0-7.5,3.5-12.9,10.4-16.4c4.6-2.3,15.4-6,32.3-11.2
		c16.9-5.2,40.8-10.5,71.6-16s69-10.2,114.7-14.2C6885.6,769.4,6939.5,767.4,7001.6,767.4 M6918.8,1403.3
		c50.6,0,95.4-3.5,134.6-10.6c39.1-7.1,73.3-16,102.6-26.7c29.3-10.8,54-22.5,74.2-35.3c20.1-12.8,36.8-25.1,50-37v-170.8
		c-57.5-9-117-17.5-178.5-25.5c-61.5-8-123.7-12.1-186.3-12.1c-44.3,0-83.8,2.6-118.6,7.8c-34.8,5.2-64.3,14.1-88.4,26.7
		c-24.2,12.6-42.6,29.8-55.2,51.3c-12.6,21.5-19,48.7-19,81.4c0,27.6,7,50.8,21.1,69.8c14.1,19,33.8,34.5,59.1,46.5
		c25.3,12.1,55.3,20.8,90.1,26.3C6839.3,1400.6,6877.4,1403.3,6918.8,1403.3 M7001.6,737.4c-62.7,0-118,2.1-164.4,6.2
		c-46.6,4.1-86.1,9-117.3,14.6c-32.2,5.7-56.7,11.2-75.1,16.8c-24.7,7.5-32.6,10.8-37,13.1c-17.1,8.6-26.9,24.3-26.9,43.2
		c0,15,5.4,29.4,15.5,41.6c14.6,17.5,30.9,21.2,42.1,21.2h5.2l4.9-1.8c13.4-4.8,29.5-9.8,47.8-14.8c18-4.9,40.6-9.6,67.3-14
		c27.1-4.4,60-8.1,97.8-10.9c38.2-2.8,85-4.2,139.3-4.2c34.1,0,67.4,3.2,98.9,9.5c28.8,5.8,54.6,17.4,76.7,34.6
		c21.7,17,39.5,41.5,53,72.9c9.5,22.2,15.8,50.1,18.8,83.2c-8.8-3.4-18-6.6-27.6-9.6c-28.4-8.8-60-16.2-93.8-22.2
		c-34.4-6-71.2-9.1-109.1-9.1h-109.1c-49.7,0-96.8,3.6-139.9,10.7c-44.8,7.4-84.7,20.4-118.5,38.7c-35.5,19.2-63.7,45.2-83.9,77
		c-20.5,32.4-31,72.7-31,120c0,42.3,11.4,79.3,33.9,109.8c21.5,29.2,51,53.1,87.7,71.2c35,17.2,76.4,29.9,123,37.7
		c45.5,7.7,94.7,11.5,146,11.5c55.2,0,104-4.4,145.1-13c41.1-8.7,77.1-20,107.1-33.7c28.5-12.9,52.9-27.5,72.6-43.3
		c0.9,17.2,4,32,9.2,44.9c9.5,23.3,29.5,36.6,55,36.6c15.1,0,27.9-4.2,37.9-12.3c8.4-6.8,14.9-15.6,19.4-26.1
		c3.8-9,6.2-18.6,7.1-28.8l0-0.1l0-0.1c0.6-7.9,1-15.7,1-23.1v-248.5c0-54.4-4.9-102.7-14.6-143.7c-9.9-41.6-23.6-77.7-40.8-107.4
		c-17.7-30.5-39.3-55.9-64.4-75.5c-24.4-19-51.1-34.1-79.3-44.9c-27.7-10.6-57.4-18-88.4-22C7062.6,739.3,7032,737.4,7001.6,737.4
		L7001.6,737.4z M6918.8,1373.3c-39.8,0-76.7-2.6-109.6-7.8c-31.8-5-59.3-13-81.9-23.7c-20.7-9.9-36.9-22.4-47.9-37.3
		c-10.2-13.8-15.2-30.8-15.2-51.9c0-27.2,5-49.5,14.8-66.2c9.8-16.8,24-29.8,43.2-39.9c21-11,47.6-18.9,78.9-23.6
		c33.2-4.9,71.6-7.4,114.2-7.4c61,0,122.4,4,182.4,11.8c52.2,6.8,103.4,14,152.4,21.5v131.2c-10.2,8.2-22.3,16.7-36.1,25.5
		c-18.2,11.5-41.2,22.5-68.4,32.5c-27.6,10.1-60.4,18.7-97.6,25.4C7010.9,1369.9,6967.4,1373.3,6918.8,1373.3L6918.8,1373.3z"/>
</g>
<g>
	<path class="st4" d="M7842.6,1467.7c-32.4,0-63.2-4.6-91.3-13.7c-28.9-9.3-54.3-24.6-75.7-45.5c-21.4-20.9-38.4-48.7-50.3-82.7
		c-11.7-33.4-17.7-74.8-17.7-123V851.2h-60.9c-12.3,0-22.1-3.7-29-11c-6.6-7-10.2-15.4-10.2-24.3c0-8.9,3.5-17.3,10.2-24.3
		c7-7.3,16.7-11,29-11h60.9V580.9c0-24,5.9-39.6,18-47.5c9.9-6.5,20.5-9.8,31.5-9.8c13,0,24.3,3.5,33.5,10.3c10.9,8.1,16,23,16,47
		v199.8H7978c12.6,0,22.7,3.6,29.9,10.6c9.1,9,11,18.4,11,24.7c0,6.3-1.9,15.8-11,24.7c-7.1,7-17.2,10.6-29.9,10.6h-271.4v351.7
		c0,40.3,4.1,73.1,12.2,97.3c7.8,23.6,18.3,41.9,31.2,54.6c12.8,12.6,27.5,20.8,44.8,25.1c18.5,4.6,38.6,6.9,59.8,6.9
		c25.7,0,51.2-4.6,75.9-13.7c25.7-9.5,55.8-23.5,89.6-41.5l0.4-0.2c9-4.5,17.9-6.8,26.5-6.8c14.4,0,23.3,5.9,28.3,10.9
		c7.1,7.1,10.9,16.3,10.9,26.6c0,11.9-4.6,28.7-26.8,40.8c-24.5,13.4-46.5,24.4-65.5,32.6c-19.3,8.3-37.3,14.9-53.5,19.6
		c-16.6,4.8-32.9,8.2-48.6,10C7876.1,1466.8,7859.6,1467.7,7842.6,1467.7z"/>
	<path class="st4" d="M7657.1,538.6c9.8,0,18,2.5,24.6,7.3c6.6,4.9,9.9,16.5,9.9,34.9v214.8H7978c8.6,0,15.1,2.1,19.4,6.3
		c4.3,4.3,6.5,8.9,6.5,14c0,5.1-2.2,9.7-6.5,14c-4.3,4.3-10.8,6.3-19.4,6.3h-286.4v366.7c0,42.1,4.3,76.1,12.9,102.1
		c8.6,25.9,20.3,46.1,34.9,60.5c14.7,14.4,31.9,24.1,51.8,29c19.8,4.9,41,7.3,63.4,7.3c27.6,0,54.6-4.9,81.1-14.7
		c26.4-9.8,56.9-23.9,91.4-42.4c6.9-3.5,13.5-5.2,19.8-5.2c7.5,0,13.4,2.2,17.7,6.5c4.3,4.3,6.5,9.6,6.5,16c0,11.5-6.3,20.7-19,27.6
		c-24.2,13.2-45.6,23.9-64.3,32c-18.7,8.1-35.9,14.4-51.8,19c-15.8,4.6-31.2,7.8-46.1,9.5c-15,1.7-30.7,2.6-47.4,2.6
		c-31.1,0-59.9-4.3-86.7-13c-26.7-8.6-50-22.6-69.9-41.9c-19.8-19.3-35.4-45-46.6-77c-11.2-32-16.8-71.3-16.8-118V836.2h-75.9
		c-8.1,0-14.1-2.1-18.1-6.3c-4-4.2-6-8.9-6-14c0-5.1,2-9.7,6-14c4-4.2,10-6.3,18.1-6.3h75.9V580.9c0-18.4,3.7-30,11.2-34.9
		C7641.3,541.1,7649.1,538.6,7657.1,538.6 M7657.1,508.6c-13.9,0-27.3,4.1-39.7,12.2c-9.6,6.3-16.6,15.8-20.6,28.4
		c-2.8,8.9-4.2,19.2-4.2,31.7v184.8h-45.9c-20.6,0-33,8.5-39.8,15.6l0,0l0,0c-9.3,9.8-14.3,21.8-14.3,34.6
		c0,12.8,4.9,24.8,14.3,34.6c6.8,7.2,19.2,15.7,39.9,15.7h45.9v336.6c0,49.9,6.2,92.9,18.5,127.9c12.7,36.2,30.9,66,54,88.5
		c23,22.5,50.5,38.9,81.6,49c29.6,9.6,61.9,14.4,95.9,14.4c17.5,0,34.7-0.9,50.8-2.8l0,0l0,0c16.5-1.9,33.6-5.4,51-10.5
		c16.8-4.9,35.4-11.7,55.3-20.3c19.4-8.4,41.9-19.5,66.8-33.2c30.1-16.4,34.5-40.8,34.5-53.9c0-14.4-5.3-27.2-15.2-37.2
		c-7-7-19.4-15.3-38.9-15.3c-11,0-22.1,2.8-33.2,8.4l-0.4,0.2l-0.4,0.2c-33.2,17.7-62.7,31.4-87.7,40.7
		c-22.9,8.5-46.7,12.8-70.6,12.8c-20,0-38.9-2.2-56.2-6.5c-14.7-3.6-27.1-10.6-37.9-21.3c-11.2-11-20.4-27.3-27.5-48.6
		c-7.6-22.8-11.4-53.9-11.4-92.6V866.2H7978c20.9,0,33.5-8.2,40.5-15c12.7-12.5,15.4-26.1,15.4-35.3c0-9.2-2.7-22.7-15.4-35.3l0,0
		l0,0c-6.9-6.8-19.6-14.9-40.4-14.9h-256.4V580.9c0-12.1-1.2-22.1-3.6-30.7c-3.5-12.3-9.7-21.8-18.4-28.3l0,0l0,0
		C7687.7,513,7673.4,508.6,7657.1,508.6L7657.1,508.6z"/>
</g>
<g>
	<path class="st4" d="M8261.8,1460.7c-28.7,0-39.5-13.4-43.5-24.7c-4-11.5-6-26.1-6-44.7V837.6c0-16.2,2.4-30.5,7.1-42.5
		c4.5-11.4,15.7-25.1,44.2-25.1c27.9,0,37.8,15.9,41.3,25.4c4.3,12,6.5,25.6,6.5,40.5v555.4c0,7.7-0.3,15.2-0.9,22.4
		c-0.7,8.2-2.4,15.4-5,21.7c-3.2,7.8-8.5,14.1-15.8,18.6C8282.4,1458.5,8273.4,1460.7,8261.8,1460.7z M8261.8,648.1
		c-17.1,0-31.6-5.4-43-16c-11.7-10.9-17.7-25.3-17.7-42.7c0-17.1,5.8-31.7,17.1-43.5c11.5-11.9,26.2-17.9,43.6-17.9
		c17.1,0,32,5.9,44,17.5c12.2,11.8,18.4,26.6,18.4,43.9c0,17.4-6.6,32.3-19,43.1C8293.3,642.8,8278.6,648.1,8261.8,648.1z"/>
	<path class="st4" d="M8261.8,543c13.2,0,24.4,4.4,33.6,13.3c9.2,8.9,13.8,19.9,13.8,33c0,13.2-4.6,23.7-13.8,31.7
		c-9.2,8-20.4,12-33.6,12c-13.2,0-24.2-4-32.8-12c-8.6-8-12.9-18.6-12.9-31.7c0-13.1,4.3-24.2,12.9-33
		C8237.6,547.5,8248.5,543,8261.8,543 M8263.5,785c14.4,0,23.4,5.2,27.2,15.5c3.7,10.4,5.6,22.1,5.6,35.4v555.4
		c0,7.5-0.3,14.5-0.9,21.1c-0.6,6.6-1.9,12.4-3.9,17.3c-2,4.9-5.3,8.8-9.9,11.6c-4.6,2.9-11.2,4.3-19.8,4.3
		c-16.1,0-25.9-4.9-29.3-14.7c-3.5-9.8-5.2-23-5.2-39.7V837.6c0-14.4,2-26.7,6-37.1C8237.3,790.2,8247.4,785,8263.5,785 M8261.8,513
		c-21.3,0-40.1,7.7-54.3,22.4c-14,14.5-21.4,33.1-21.4,53.9c0,21.5,7.8,40,22.5,53.7c14.1,13.1,32.5,20,53.2,20
		c20.6,0,38.5-6.5,53.3-19.4c15.8-13.8,24.1-32.6,24.1-54.4c0-21.2-7.9-40.1-22.9-54.6l0,0l0,0C8301.5,520.5,8282.6,513,8261.8,513
		L8261.8,513z M8263.5,755c-12.8,0-24.1,2.4-33.4,7.2c-11.5,5.9-20.1,15.4-24.8,27.4c-5.4,13.8-8.1,29.9-8.1,48v553.7
		c0,20.3,2.2,36.6,6.9,49.7c4.3,12.3,12.9,21.9,24.8,27.8c9.2,4.6,19.9,6.8,32.8,6.8c14.5,0,26.2-2.9,35.7-8.8l0,0l0,0
		c9.9-6.2,17.4-15.1,21.7-25.7c3.2-7.7,5.2-16.4,6-26l0-0.1l0-0.1c0.6-7.6,1-15.6,1-23.6V835.9c0-16.6-2.5-31.9-7.4-45.5l0,0l0,0
		C8315,779.7,8301.9,755,8263.5,755L8263.5,755z"/>
</g>
<g>
	<path class="st4" d="M8988,1469.2c-66.1,0-127.3-5.3-181.8-15.8c-55.5-10.7-103.8-29.8-143.6-56.7c-40.3-27.3-72-64.4-94.4-110.3
		c-22.2-45.6-33.4-103.8-33.4-173.1c0-68.5,10.3-126.6,30.6-172.6c20.5-46.6,51-84.5,90.4-112.7c38.9-27.9,87.2-47.7,143.4-59
		c55-11.1,118.6-16.7,188.8-16.7c51.2,0,104.9,5.2,159.7,15.4c55.2,10.3,109.4,28.9,161.1,55.3l0.2,0.1l0.2,0.1
		c8.7,4.8,15.3,10.9,19.5,18.1c4.2,7.2,6.4,14.5,6.4,21.8c0,10.3-3.8,19.5-10.9,26.6c-5,5-13.9,10.9-28.3,10.9
		c-5.3,0-12.3-1.6-22.8-5.1l-1-0.3l-1-0.5c-13.1-6.5-30.5-13.5-51.6-20.8c-21.3-7.3-44.9-14-70.1-19.9
		c-25.5-5.9-52.5-10.9-80.2-14.9c-27.7-3.9-55-5.9-81.1-5.9c-64.7,0-120.4,5.4-165.6,16c-44.1,10.4-80.6,26.9-108.3,49.3
		c-27.3,22-47.7,50.8-60.5,85.4c-13.1,35.6-19.8,79.1-19.8,129.4c0,50.7,7.3,94.1,21.7,128.9c14.1,34.1,35.7,62.2,64.1,83.5
		c28.9,21.6,65.7,37.6,109.5,47.4c44.6,10.1,97.8,15.1,158,15.1c26.8,0,54.3-2,82-5.9c28-4,54.9-9,80.2-14.9
		c25.2-5.9,48.8-12.6,70.1-19.9c21.1-7.2,38.5-14.2,51.6-20.8l1-0.5l1-0.3c10.5-3.5,17.6-5.1,22.8-5.1c14.4,0,23.3,5.9,28.3,10.9
		c7.1,7.1,10.9,16.3,10.9,26.6c0,7.3-2.1,14.6-6.4,21.8c-4.2,7.3-10.8,13.4-19.6,18.1l-0.3,0.2c-51.7,26.5-105.9,45.1-161.1,55.4
		C9092.9,1464,9039.2,1469.2,8988,1469.2z"/>
	<path class="st4" d="M8988,767.4c50.6,0,102.9,5.1,157,15.1c54,10.1,106.4,28,157,53.9c6.3,3.5,10.9,7.6,13.8,12.5
		s4.3,9.6,4.3,14.2c0,6.3-2.2,11.7-6.5,16s-10.2,6.5-17.7,6.5c-3.5,0-9.5-1.4-18.1-4.3c-13.8-6.9-31.6-14.1-53.5-21.6
		c-21.9-7.5-45.7-14.2-71.6-20.3c-25.9-6-53-11.1-81.5-15.1c-28.5-4-56.2-6-83.2-6c-66.1,0-122.5,5.5-169.1,16.4
		c-46.6,10.9-84.7,28.3-114.3,52.2c-29.6,23.9-51.3,54.5-65.1,91.9c-13.8,37.4-20.7,82.3-20.7,134.6c0,52.9,7.6,97.8,22.9,134.6
		c15.2,36.8,38.2,66.7,69,89.8c30.7,23,69.1,39.7,115.2,50c46,10.4,99.7,15.5,161.3,15.5c27.6,0,55.6-2,84.1-6
		c28.5-4,55.6-9.1,81.5-15.1c25.9-6,49.7-12.8,71.6-20.3s39.7-14.7,53.5-21.6c8.6-2.9,14.7-4.3,18.1-4.3c7.5,0,13.4,2.2,17.7,6.5
		c4.3,4.3,6.5,9.6,6.5,16c0,4.6-1.4,9.4-4.3,14.2c-2.9,4.9-7.5,9.1-13.8,12.5c-50.6,25.9-103,43.9-157,54
		c-54,10-106.4,15.1-157,15.1c-65.6,0-125.2-5.2-179-15.5c-53.8-10.4-99.8-28.5-138-54.4c-38.3-25.9-68-60.7-89.3-104.4
		c-21.3-43.7-31.9-99.2-31.9-166.5c0-66.7,9.8-122.2,29.3-166.5c19.5-44.3,48-79.8,85.4-106.5s83.2-45.6,137.6-56.5
		C8856.5,772.8,8918.4,767.4,8988,767.4 M8988,737.4c-71.2,0-135.8,5.7-191.8,17c-58.3,11.7-108.4,32.4-149.1,61.5
		c-41.6,29.8-73.7,69.8-95.4,118.8c-10.7,24.3-18.8,51.8-24.1,81.8c-5.2,29.3-7.8,61.9-7.8,96.9c0,35.4,2.9,68.3,8.5,97.7
		c5.8,30.2,14.7,57.8,26.4,81.9c23.5,48.3,57,87.4,99.4,116.1c41.4,28.1,91.6,47.9,149.1,59c55.5,10.7,117.6,16.1,184.6,16.1
		c52.1,0,106.8-5.2,162.4-15.6c56.6-10.5,112.2-29.6,165.2-56.8l0.3-0.2l0.3-0.2c11.2-6.1,19.7-14,25.4-23.7
		c5.6-9.5,8.4-19.4,8.4-29.4c0-14.3-5.3-27.2-15.2-37.2c-7-7-19.4-15.3-38.9-15.3c-7,0-15.3,1.7-27.6,5.8l-2,0.7l-1.9,1
		c-12.5,6.3-29.3,13-49.7,20c-20.8,7.1-43.9,13.7-68.7,19.5c-24.8,5.8-51.4,10.7-78.9,14.6c-27,3.8-53.8,5.7-79.9,5.7
		c-59.1,0-111.1-5-154.7-14.8c-41.7-9.4-76.6-24.4-103.8-44.8c-26.6-19.9-46-45.2-59.3-77.2c-13.7-33-20.6-74.4-20.6-123.1
		c0-48.5,6.3-90.3,18.8-124.2c12-32.5,30.3-58.3,55.8-78.9c26-20.9,60.4-36.5,102.3-46.4c44.1-10.4,98.7-15.6,162.2-15.6
		c25.5,0,52.1,1.9,79,5.7c27.2,3.9,53.8,8.8,78.9,14.6c24.7,5.8,47.8,12.3,68.6,19.4c20.6,7,37.3,13.8,49.8,20l1.9,1l2,0.7
		c12.3,4.1,20.5,5.8,27.6,5.8c19.6,0,32-8.3,38.9-15.2c10-10,15.2-22.8,15.2-37.2c0-10-2.8-19.9-8.4-29.4
		c-5.6-9.6-14.1-17.5-25.2-23.6l-0.4-0.2l-0.4-0.2c-53-27.1-108.5-46.1-165.1-56.7C9094.8,742.6,9040.1,737.4,8988,737.4L8988,737.4
		z"/>
</g>
</svg>
